<svg id="Capa_1" enable-background="new 0 0 512 512" height="512" viewBox="0 0 512 512" width="512" xmlns="http://www.w3.org/2000/svg"><g><g><path d="m436.307 389.637h-82.327c-12.703 0-23-10.297-23-23v-34.636c0-12.703 10.297-23 23-23h82.327c12.703 0 23 10.297 23 23v34.636c0 12.703-10.297 23-23 23z" fill="#fcb143"/></g><g><path d="m158.019 389.637h-82.326c-12.703 0-23-10.297-23-23v-34.636c0-12.703 10.297-23 23-23h82.327c12.703 0 23 10.297 23 23v34.636c-.001 12.703-10.298 23-23.001 23z" fill="#fcb143"/></g><g><path d="m436.412 309.002h-2.342v32.504c0 12.645-10.25 22.895-22.895 22.895h-80.195v2.342c0 12.645 10.25 22.895 22.895 22.895h82.537c12.645 0 22.895-10.25 22.895-22.895v-34.846c0-12.645-10.25-22.895-22.895-22.895z" fill="#fa9801"/></g><g><path d="m158.124 309.002h-2.342v32.504c0 12.645-10.25 22.895-22.895 22.895h-80.194v2.342c0 12.645 10.25 22.895 22.895 22.895h82.537c12.645 0 22.895-10.25 22.895-22.895v-34.846c-.001-12.645-10.251-22.895-22.896-22.895z" fill="#fa9801"/></g><g><circle cx="253.013" cy="461.614" fill="#ffe07d" r="50.386"/></g><g><path d="m274.61 416.085c3.111 6.546 4.857 13.867 4.857 21.597 0 27.827-22.559 50.386-50.386 50.386-7.73 0-15.051-1.746-21.597-4.857 8.088 17.02 25.432 28.789 45.529 28.789 27.827 0 50.386-22.559 50.386-50.386 0-20.098-11.77-37.442-28.789-45.529z" fill="#ffd064"/></g><path d="m417.667 253.427c-3.117-2.699-7.832-2.361-10.531.756l-4.527 5.227v-36.552c0-4.123-3.342-7.466-7.466-7.466h-134.665v-66.987l15.813-18.26c2.698-3.117 2.36-7.832-.756-10.531-3.118-2.699-7.832-2.361-10.532.756l-4.525 5.225v-37.938c0-4.123-3.342-7.466-7.466-7.466s-7.466 3.343-7.466 7.466v37.939l-4.525-5.225c-2.701-3.118-7.415-3.456-10.532-.756-3.117 2.699-3.455 7.414-.756 10.531l15.813 18.26v66.987h-129.304c-4.124 0-7.466 3.343-7.466 7.466v36.551l-4.525-5.225c-2.701-3.118-7.415-3.456-10.532-.756-3.117 2.699-3.455 7.414-.756 10.531l17.635 20.364c1.418 1.638 3.478 2.578 5.644 2.578s4.226-.941 5.643-2.578l17.636-20.364c2.699-3.117 2.361-7.832-.755-10.531s-7.832-2.361-10.531.756l-4.527 5.227v-29.086h121.839v132.113l-4.525-5.225c-2.701-3.118-7.415-3.456-10.532-.756-3.117 2.699-3.455 7.414-.756 10.531l17.635 20.364c1.418 1.638 3.478 2.579 5.644 2.579s4.226-.941 5.644-2.579l17.635-20.364c2.698-3.117 2.36-7.832-.756-10.531-3.118-2.699-7.832-2.361-10.532.756l-4.525 5.225v-132.115h127.2v29.085l-4.525-5.225c-2.701-3.118-7.415-3.456-10.532-.756-3.116 2.699-3.455 7.414-.756 10.531l17.635 20.364c1.418 1.638 3.478 2.578 5.644 2.578s4.226-.941 5.643-2.578l17.636-20.364c2.698-3.118 2.36-7.833-.757-10.532z" fill="#698ed5"/><g><path d="m245.941 278.416-48.487-48.487c-3.905-3.905-3.905-10.237 0-14.142l48.487-48.487c3.905-3.905 10.237-3.905 14.142 0l48.487 48.487c3.905 3.905 3.905 10.237 0 14.142l-48.487 48.487c-3.905 3.905-10.236 3.905-14.142 0z" fill="#fb74c4"/></g><g><path d="m308.603 215.819-12.852-12.852-62.629 62.629 12.852 12.852c3.887 3.887 10.19 3.887 14.078 0l48.551-48.551c3.887-3.888 3.887-10.19 0-14.078z" fill="#dd5ca2"/></g><g><path d="m346.646 90.047h-187.267c-2.164 0-3.919-1.754-3.919-3.919v-82.209c0-2.164 1.754-3.919 3.919-3.919h187.267c2.164 0 3.919 1.754 3.919 3.919v82.209c0 2.164-1.755 3.919-3.919 3.919z" fill="#698ed5"/><g><path d="m346.664 0h-19.82v62.425c0 2.154-1.747 3.901-3.901 3.901h-167.483v19.82c0 2.154 1.746 3.901 3.901 3.901h187.302c2.154 0 3.901-1.747 3.901-3.901v-82.245c.001-2.155-1.746-3.901-3.9-3.901z" fill="#4073c8"/></g></g></g></svg>