<?xml version="1.0"?>
<svg xmlns="http://www.w3.org/2000/svg" xmlns:xlink="http://www.w3.org/1999/xlink" xmlns:svgjs="http://svgjs.com/svgjs" version="1.1" width="512" height="512" x="0" y="0" viewBox="0 0 512 512" style="enable-background:new 0 0 512 512" xml:space="preserve" class=""><g transform="matrix(-1,0,0,1,511.99998474121094,0)"><g xmlns="http://www.w3.org/2000/svg" id="XMLID_1_"><g id="XMLID_479_"><path id="XMLID_1105_" d="m218 507v-332.7c0-25.6 20.7-46.3 46.3-46.3h79.4c25.6 0 46.3 20.7 46.3 46.3v332.7z" fill="#b5100b" data-original="#b5100b" class=""/><path id="XMLID_383_" d="m218 507v-332.7c0-25.6 20.7-46.3 46.3-46.3h50.3c25.6 0 46.3 20.7 46.3 46.3v332.7z" fill="#dc4e44" data-original="#db3328" class=""/><path id="XMLID_1081_" d="m343.7 128h-79.4c0-14.4 11.6-26 26-26h27.4c14.4 0 26 11.6 26 26z" fill="#747e6c" data-original="#747e6c" class=""/><path id="XMLID_1473_" d="m331 128h-66.7c0-14.4 11.6-26 26-26h14.7c14.4 0 26 11.6 26 26z" fill="#c4c1ab" data-original="#c4c1ab" class=""/><path id="XMLID_1080_" d="m218 449h172v58h-172z" fill="#1c2617" data-original="#1c2617" class=""/><path id="XMLID_385_" d="m333.7 476.3h-115.7v-27.3h143c0 15.1-12.2 27.3-27.3 27.3z" fill="#323d2c" data-original="#323d2c" class=""/><path id="XMLID_1079_" d="m290.4 75h27.4v27h-27.4z" fill="#747e6c" data-original="#747e6c" class=""/><path id="XMLID_1500_" d="m307 102h-16.7v-18h8.5c4.5 0 8.2 3.7 8.2 8.2z" fill="#c4c1ab" data-original="#c4c1ab" class=""/><path id="XMLID_1078_" d="m326.7 30.3-44.7 8v36.7h44.7z" fill="#dc4e44" data-original="#db3328" class=""/><path id="XMLID_1205_" d="m314 32.5v42.5h13v-44.7z" fill="#b5100b" data-original="#b5100b" class=""/><path id="XMLID_1077_" d="m432 84-105.3-25.2v16.2l105.3 25.2z" fill="#b5100b" data-original="#b5100b" class=""/><path id="XMLID_1076_" d="m432 19.7-105.3 25.3-44.7-6.7 150-33.3z" fill="#dc4e44" data-original="#db3328" class=""/><g id="XMLID_1074_"><path id="XMLID_1075_" d="m138 308.3h-20v-101c0-38 13.5-75 37.9-104.2l1.8-2.2c31-36.8 76.3-57.9 124.3-57.9v20c-42.2 0-81.9 18.5-109 50.8l-1.8 2.2c-21.4 25.6-33.2 58-33.2 91.3z" fill="#323d2c" data-original="#323d2c" class=""/></g><path id="XMLID_1507_" d="m124 213.8c0-38 13.7-75 38.2-104.2l1.9-2.2c29.5-35.2 71.9-56 117.9-57.8v-6.6c-48 0-93.4 21.1-124.3 58l-1.8 2.2c-24.4 29.1-37.9 66.2-37.9 104.2v93.6h6z" fill="#485143" data-original="#485143" class=""/><path id="XMLID_1073_" d="m97.5 340.3h61l17.6 96.2h-96.1z" fill="#323d2c" data-original="#323d2c" class=""/><path id="XMLID_1519_" d="m158.5 340h-15.8l5.2 28.7c4.6 25.2-14.7 48.3-40.3 48.3h-24.1l-3.5 19h96.2z" fill="#1c2617" data-original="#1c2617" class=""/><path id="XMLID_1072_" d="m109 301h38v39.3h-38z" fill="#747e6c" data-original="#747e6c" class=""/><path id="XMLID_1501_" d="m137.9 301h-28.9v30.7h11.8c9.4 0 17-7.6 17-17v-13.7z" fill="#c4c1ab" data-original="#c4c1ab" class=""/><path id="XMLID_1071_" d="m192 277.7h198v30.7h-198z" fill="#1c2617" data-original="#1c2617" class=""/><path id="XMLID_1202_" d="m192 277.7h169v30.7h-169z" fill="#323d2c" data-original="#323d2c" class=""/><path id="XMLID_1173_" d="m100 358.4c0-5.5 4.5-10 10-10h8c5.5 0 10 4.5 10 10 0 5.5-4.5 10-10 10h-8c-5.5 0-10-4.5-10-10z" fill="#485143" data-original="#485143" class=""/><path id="XMLID_1175_" d="m244.5 162c0-5.5 4.5-10 10-10h42.5c5.5 0 10 4.5 10 10 0 5.5-4.5 10-10 10h-42.5c-5.5 0-10-4.5-10-10z" fill="#e67368" data-original="#e67368" class=""/></g></g></g></svg>
