<svg id="Capa_1" enable-background="new 0 0 493.418 493.418" height="512" viewBox="0 0 493.418 493.418" width="512" xmlns="http://www.w3.org/2000/svg"><g><g><path d="m205.515 311.229c4.991 3.196 10.855 4.801 16.963 4.532 7.454-.328 14.454-3.687 19.73-8.963l8.544-8.544c2.752-2.752 7.215-2.752 9.968 0l12.66 12.659c2.752 2.752 2.753 7.215 0 9.968l-9.013 9.013c-22.36 22.36-57.739 23.767-81.737 4.22l-23.328-23.329c-19.546-23.999-18.14-59.376 4.22-81.737l9.013-9.013c2.752-2.752 7.215-2.752 9.968 0l12.659 12.659c2.752 2.752 2.752 7.215 0 9.968l-9.013 9.013c-9.819 9.819-11.133 24.966-3.957 36.221z" fill="#baafb9"/></g><g><g><g id="XMLID_554_"><g><path d="m475.515 32.329c23.87 23.86 23.87 62.55 0 86.41l-29.38 29.39c-22.36 22.36-57.74 23.77-81.74 4.22l-23.33-23.33c-19.55-24-18.14-59.37 4.22-81.73l29.39-29.39c23.86-23.86 62.55-23.86 86.41 0zm-22.62 63.79c11.34-11.35 11.34-29.81 0-41.16l-14.44-14.44c-5.49-5.49-12.8-8.52-20.58-8.52-7.77 0-15.08 3.03-20.57 8.52l-29.39 29.39c-9.82 9.82-11.14 24.97-3.96 36.22l23.32 23.34c4.64 2.96 10.02 4.56 15.65 4.56 7.77 0 15.08-3.03 20.58-8.53z" fill="#baafb9"/></g></g></g><g><g id="XMLID_552_"><g><path d="m152.345 364.399c19.55 24 18.14 59.37-4.22 81.73l-29.39 29.39c-23.86 23.86-62.55 23.86-86.41 0l-14.43-14.43c-23.86-23.86-23.86-62.55 0-86.41l29.39-29.39c22.36-22.36 57.74-23.77 81.73-4.22zm-26.85 59.11c9.82-9.82 11.14-24.97 3.96-36.22l-23.32-23.34c-4.63-2.96-10.02-4.56-15.65-4.56-7.77 0-15.08 3.03-20.58 8.53l-29.38 29.38c-11.35 11.35-11.35 29.82 0 41.16l14.43 14.44c5.5 5.49 12.8 8.52 20.58 8.52 7.77 0 15.08-3.03 20.58-8.52z" fill="#baafb9"/></g></g></g><g><g><path d="m311.223 205.521c3.195 4.991 4.8 10.854 4.532 16.961-.328 7.454-3.686 14.454-8.962 19.73l-8.545 8.545c-2.752 2.752-2.752 7.215 0 9.967l12.66 12.66c2.753 2.753 7.215 2.752 9.968 0l9.013-9.013c22.36-22.36 23.766-57.738 4.22-81.736l-23.328-23.329c-23.998-19.546-59.377-18.14-81.737 4.22l-9.013 9.013c-2.753 2.752-2.752 7.215 0 9.968l12.659 12.659c2.752 2.752 7.215 2.752 9.967 0l9.013-9.012c5.497-5.496 12.806-8.522 20.579-8.522 5.632 0 11.015 1.596 15.646 4.561z" fill="#baafb9"/></g></g><path d="m410.128 133.132c-2.326.59-4.741.896-7.203.896-5.63 0-11.01-1.6-15.65-4.56l-23.32-23.34c-4.384-6.87-5.582-15.19-3.627-22.867-2.758 1.589-5.33 3.542-7.641 5.854l-21.787 21.787c2.279 6.443 5.658 12.584 10.165 18.117l23.33 23.33c5.533 4.507 11.675 7.886 18.119 10.165l21.784-21.785c2.299-2.299 4.245-4.855 5.83-7.597z" fill="#aa9ea9"/><path d="m315.104 227.316c3.438-1.731 6.62-4.012 9.422-6.813l19.747-19.748c-2.279-6.444-5.657-12.586-10.164-18.12l-23.328-23.329c-5.533-4.507-11.675-7.885-18.12-10.164l-19.746 19.747c-2.794 2.794-5.07 5.966-6.8 9.394 1.995-.426 4.047-.651 6.135-.651 5.632 0 11.015 1.596 15.646 4.561l23.328 23.328c3.195 4.991 4.801 10.854 4.532 16.961-.073 1.638-.299 3.253-.652 4.834z" fill="#aa9ea9"/><path d="m390.158 126.586-79.775 79.775c-6.442 6.442-16.886 6.442-23.328 0-6.442-6.442-6.442-16.886 0-23.328l79.775-79.775c6.442-6.442 16.886-6.442 23.328 0 6.441 6.442 6.441 16.886 0 23.328z" fill="#d7d0d6"/><path d="m228.233 314.89c-1.872.484-3.797.785-5.755.871-6.108.269-11.972-1.336-16.963-4.532l-23.324-23.333c-4.353-6.827-5.561-15.083-3.662-22.716-2.863 1.615-5.528 3.622-7.915 6.01l-21.476 21.476c2.279 6.444 5.657 12.586 10.164 18.12l23.328 23.329c5.534 4.507 11.676 7.886 18.121 10.165l21.475-21.475c2.386-2.389 4.392-5.053 6.007-7.915z" fill="#aa9ea9"/><path d="m152.345 364.399-23.33-23.33c-5.531-4.507-11.672-7.886-18.115-10.166l-20.064 20.063c-2.746 2.746-4.956 5.827-6.642 9.109 2.044-.449 4.149-.687 6.291-.687 5.63 0 11.02 1.6 15.65 4.56l23.32 23.34c4.215 6.604 5.477 14.547 3.834 21.971 3.339-1.715 6.431-3.951 9.162-6.682l20.06-20.06c-2.279-6.443-5.658-12.585-10.166-18.118z" fill="#aa9ea9"/><path d="m208.083 308.661-79.775 79.775c-6.442 6.442-16.886 6.442-23.328 0-6.442-6.442-6.442-16.886 0-23.328l79.775-79.775c6.442-6.442 16.886-6.442 23.328 0 6.442 6.441 6.442 16.886 0 23.328z" fill="#d7d0d6"/><path d="m182.63 102.64v-55.09c0-3.88-3.222-6.988-7.099-6.856-14.182.482-26.306 5.294-36.676 13.795-2.821 2.313-3.25 6.476-1.047 9.383l32.508 42.905c3.966 5.237 12.314 2.432 12.314-4.137z" fill="#fee97d"/><path d="m107.975 167.744-46.85-28.983c-3.3-2.041-7.637-.936-9.565 2.431-7.051 12.314-9.337 25.156-7.563 38.448.483 3.616 3.797 6.171 7.429 5.827l53.59-5.073c6.539-.619 8.545-9.194 2.959-12.65z" fill="#fee97d"/><g><path d="m96.217 103.197c-2.067 0-4.125-.85-5.607-2.516l-13.205-14.845c-2.752-3.095-2.475-7.836.62-10.589 3.096-2.752 7.835-2.475 10.589.62l13.204 14.846c2.752 3.095 2.475 7.836-.62 10.589-1.429 1.27-3.209 1.895-4.981 1.895z" fill="#fee45a"/></g><g><path d="m229.033 84.769c-.997 0-2.011-.2-2.983-.623-3.8-1.649-5.542-6.067-3.892-9.866l10.004-23.036c1.648-3.8 6.068-5.543 9.866-3.892 3.8 1.649 5.542 6.067 3.892 9.866l-10.004 23.036c-1.227 2.827-3.986 4.515-6.883 4.515z" fill="#fee45a"/></g><g><path d="m54.752 246.025c-2.897 0-5.656-1.688-6.884-4.515-1.649-3.8.094-8.217 3.893-9.867l23.037-10.003c3.797-1.649 8.217.094 9.867 3.893 1.649 3.8-.094 8.217-3.893 9.867l-23.037 10.003c-.972.422-1.986.622-2.983.622z" fill="#fee45a"/></g><path d="m390.774 310.784h55.09c3.88 0 6.988 3.222 6.856 7.099-.482 14.182-5.294 26.306-13.796 36.676-2.313 2.821-6.476 3.25-9.383 1.047l-42.905-32.508c-5.236-3.966-2.431-12.314 4.138-12.314z" fill="#fee97d"/><path d="m325.67 385.439 28.983 46.85c2.041 3.3.936 7.637-2.431 9.565-12.314 7.051-25.156 9.337-38.448 7.563-3.616-.483-6.171-3.797-5.827-7.429l5.073-53.59c.619-6.539 9.194-8.545 12.65-2.959z" fill="#fee97d"/><g><path d="m412.559 417.904c-1.772 0-3.553-.625-4.981-1.896l-14.846-13.204c-3.095-2.753-3.372-7.494-.62-10.589 2.753-3.094 7.493-3.373 10.589-.62l14.846 13.204c3.095 2.753 3.372 7.494.62 10.589-1.483 1.666-3.54 2.516-5.608 2.516z" fill="#fee45a"/></g><g><path d="m416.15 271.879c-2.897 0-5.655-1.688-6.883-4.515-1.65-3.799.092-8.217 3.892-9.866l23.036-10.004c3.798-1.652 8.216.091 9.866 3.892 1.65 3.799-.092 8.217-3.892 9.866l-23.036 10.004c-.972.422-1.986.623-2.983.623z" fill="#fee45a"/></g><g><path d="m254.887 446.168c-.997 0-2.01-.2-2.983-.622-3.799-1.65-5.542-6.067-3.893-9.867l10.003-23.037c1.649-3.799 6.064-5.54 9.867-3.893 3.799 1.65 5.542 6.067 3.893 9.867l-10.003 23.037c-1.228 2.826-3.988 4.515-6.884 4.515z" fill="#fee45a"/></g></g></g></svg>