<svg id="Layer_3" height="512" viewBox="0 0 64 64" width="512" xmlns="http://www.w3.org/2000/svg" data-name="Layer 3"><path d="m54 49-5.088-5.088-5.087 4.913 5.175 5.175z" fill="#d5883e"/><circle cx="39" cy="38" fill="#f0ae42" r="13"/><path d="m46.539 33.083a23.075 23.075 0 0 1 -11.886 12.8 9 9 0 1 1 11.886-12.8z" fill="#3d54bd"/><path d="m34.653 45.882a9 9 0 0 0 11.886-12.8 23.075 23.075 0 0 1 -11.886 12.8z" fill="#e2e7f6"/><path d="m47.752 28.388a13 13 0 0 0 -17.689 19.053 22.98 22.98 0 1 1 17.689-19.053z" fill="#546ded"/><path d="m31.143 27.642a13 13 0 0 0 -1.08 19.8 23.049 23.049 0 0 1 -20.063-5.006v-8.436l5-6 5 1 3-7 5-3z" fill="#6bc13b"/><path d="m6.014 12.014 3.986 3.986 4 1 1 6-6 3h-3l-3.144 5.239a23.06 23.06 0 0 1 3.158-19.225z" fill="#6bc13b"/><path d="m45.155 13.911-7.155 4.089-5-6h-5l-5 2-2-6 4-6a22.993 22.993 0 0 1 20.155 11.911z" fill="#6bc13b"/><path d="m53.55 60.55-5.55-5.55 7-7 5.55 5.55a4.948 4.948 0 0 1 1.45 3.5 4.95 4.95 0 0 1 -4.95 4.95 4.948 4.948 0 0 1 -3.5-1.45z" fill="#f0ae42"/><path d="m55 48-5.5 5.5 4.05 4.05a4.929 4.929 0 0 0 8.193-2 4.924 4.924 0 0 0 -1.193-2z" fill="#f9d266"/><g fill="#c0dafc"><path d="m51 22 2-10 5 3z"/><path d="m52 29 10-2-3-5z"/><path d="m25 51-10 2 3 5z"/><path d="m32 52-2 10-5-3z"/></g></svg>