<svg xmlns="http://www.w3.org/2000/svg"
						xmlns:xlink="http://www.w3.org/1999/xlink"
						version="1.1"
						class="page"
						pageAlignment="none"
						x="0px" y="0px" width="45px" height="45px"
						viewBox="0 0 46.127 46.127" enable-background="new 0 0 46.127 46.127" xml:space="preserve">
						<g type="LAYER" name="workspace" id="workspace" locked="true" />
						<g transform="matrix(1 0 0 1 -2.7899395161290848 -1.4210854715202004e-14)"><g><path transform="matrix(1 0 0 1 -3.197442310920451e-14 -3.552713678800501e-15)" width="40.788999999999994" height="34.022999999999996" stroke-miterlimit="3" stroke="none" fill="white" d="M43.202,16.593 C44.558,14.966 45.314,12.974 45.314,10.927 C45.314,5.694 40.541,1.436 34.671,1.436 C32.179,1.436 29.823999999999998,2.194 27.927,3.589 C26.281,2.71 24.419999999999998,2.2489999999999997 22.482,2.2489999999999997 C16.613999999999997,2.2489999999999997 11.838999999999999,6.505999999999999 11.838999999999999,11.739999999999998 C11.838999999999999,12.067999999999998 11.86,12.399 11.900999999999998,12.730999999999998 C7.972999999999998,14.179999999999998 5.337999999999998,17.615 5.337999999999998,21.491999999999997 C5.337999999999998,26.616999999999997 9.915999999999999,30.805 15.616999999999997,30.976999999999997 C17.659,33.762 21.139999999999997,35.458999999999996 24.918999999999997,35.458999999999996 C28.012999999999998,35.458999999999996 30.909,34.333999999999996 33.007,32.342999999999996 C33.821999999999996,32.517999999999994 34.652,32.607 35.483999999999995,32.607 C41.35099999999999,32.607 46.126999999999995,28.35 46.126999999999995,23.116999999999997 C46.127,20.682 45.059,18.342 43.202,16.593 Z M35.484,29.607 C34.634,29.607 33.788000000000004,29.482 32.964,29.237 C32.403,29.069 31.796,29.243 31.409,29.682 C29.852,31.448 27.482999999999997,32.591 24.918999999999997,32.458999999999996 C16.913999999999994,32.050999999999995 22.846504704301122,28.209388440860227 23.40449260752693,28.023392473118292 C24.892460349462407,26.90741666666668 25.82244018817209,25.23345295698926 25.82244018817209,25.23345295698926 C27.620401209677464,21.699529569892483 25.5744455645162,20.27356048387098 24.39647110215058,22.567510752688186 C21.42053561827961,26.96941532258066 20.056565188172044,27.093412634408608 15.852999999999996,27.976999999999997 C10.50877217741936,27.093412634408608 8.338999999999995,25.033999999999995 8.338999999999995,21.491999999999997 C8.338999999999995,18.572999999999997 10.660999999999994,15.999999999999996 13.985999999999995,15.234999999999998 C14.389999999999995,15.141999999999998 16.996627016129075,14.989682795698933 17.204627016129077,14.631682795698934 C18.196605510752732,14.569684139784954 19.4365786290323,14.197692204301083 19.312581317204344,13.267712365591406 C18.754593413978537,12.089737903225814 14.839999999999995,12.258999999999997 14.839999999999995,11.740999999999996 C14.839999999999995,8.161999999999995 18.268999999999995,5.2499999999999964 22.482999999999993,5.2499999999999964 C24.213999999999995,5.2499999999999964 25.852999999999994,5.737999999999996 27.221999999999994,6.661999999999996 C27.794999999999995,7.050999999999997 28.561999999999994,6.9949999999999966 29.074999999999996,6.524999999999997 C30.543999999999997,5.178999999999997 32.532,4.436999999999997 34.67399999999999,4.436999999999997 C38.888999999999996,4.436999999999997 42.31699999999999,7.348999999999997 42.31699999999999,10.927999999999997 C42.31699999999999,12.681999999999997 41.49399999999999,14.329999999999998 39.998999999999995,15.569999999999997 C39.998999999999995,15.569999999999997 37.52799999999999,15.175999999999997 36.199999999999996,15.316999999999997 C35.269999999999996,15.414999999999997 35.379999999999995,16.372999999999998 35.989,16.449999999999996 C35.991,16.449999999999996 36.562999999999995,16.522999999999996 37.43,16.771999999999995 C38.214,17.003999999999994 39.214999999999996,17.396999999999995 40.102,17.952999999999996 C40.114,17.960999999999995 40.122,17.971999999999994 40.132,17.978999999999996 C42.036,19.225999999999996 43.128,21.098999999999997 43.128,23.116999999999997 C43.127,26.695 39.698,29.607 35.484,29.607 Z " /><path transform="matrix(0.7294529523057045 -0.6840309864125247 0.6840309864125247 0.7294529523057045 6.265543249090356 22.160584787529125)" width="9.269238195345391" height="8.242173321596823" stroke-width="0.9726698570467875" stroke-miterlimit="3" stroke="none" fill="white" d="M10.903738853496426,26.926616690136903 C8.347534221278183,26.926616690136903 6.173680923336873,29.024229958295642 6.173680923336873,31.060363002008906 C6.173680923336866,33.09736433273442 8.15540185328028,35.16879001173371 10.711606485498487,35.168790011733726 C13.26672151642419,35.168790011733755 15.44291911868226,33.097364332734436 15.442919118682264,31.06036300200892 C15.442919118682264,29.02422995829567 13.458853884422071,26.926616690136974 10.903738853496426,26.926616690136903 Z M10.760755083402069,33.51452942268974 C9.406380676817585,33.51452942268977 8.35288350834812,32.13964375822879 8.352883508348127,31.06123128902116 C8.35288350834814,29.983687106825776 9.47517470680127,28.642344445261493 10.829549113385761,28.642344445261465 C12.182833918677735,28.642344445261465 13.26371653367101,29.9819505328013 13.263716533671014,31.06036300200892 C13.263716533670982,32.13877547121654 12.11403988869404,33.51452942268977 10.760755083402069,33.51452942268974 Z " /><path transform="matrix(-0.7780555636623032 -0.6281954630957917 0.6281954630957917 -0.7780555636623032 29.371267419723026 67.11132444435009)" width="5.224956317104041" height="7.361872939220618" stroke-width="0.6901731429167247" stroke-miterlimit="3" stroke="none" fill="white" d="M6.14630436741146,24.05073553069615 C4.705403048506273,24.05073553069615 3.4800285050794386,25.92431447077312 3.4800285050794457,27.74297954493357 C3.480028505079453,29.56242016923236 4.597100380181828,31.412608469916783 6.038001699086976,31.41260846991677 C7.478288823056516,31.412608469916727 8.704984822183484,29.562420169232375 8.704984822183487,27.742979544933654 C8.704984822183498,25.92431447077312 7.586591491380972,24.050735530696194 6.14630436741146,24.05073553069615 Z M6.065706163216731,29.935030191746968 C5.302261858272523,29.935030191746996 4.708418376268824,28.70698836675941 4.708418376268817,27.743755095071883 C4.708418376268831,26.781297373522555 5.3410402124336045,25.583216011108355 6.104484517377795,25.583216011108327 C6.8673146273863885,25.583216011108327 7.476594950994102,26.77974627324607 7.4765949509941265,27.742979544933654 C7.476594950994098,28.70621281662121 6.8285362732253105,29.935030191746954 6.065706163216731,29.935030191746968 Z " /></g></g><g /><g /><g /><g /><g /><g /><g /><g /><g /><g /><g /><g /><g /><g /><g transform="matrix(0.966215817495325 0.25773434777274173 -0.25773434777274173 0.966215817495325 5.475022934395504 -10.154892365503292)"><path transform="matrix(0.7821734768370466 -0.6230607130389834 0.6230607130389834 0.7821734768370466 22.60260367630126 10.864428715112108)" width="2.756604313276182" height="15.944291437533135" stroke-width="1.2435760959536475" stroke-miterlimit="3" stroke="none" fill="white" d="M-0.24815373928899476,9.331620820892159 C-0.24815373928898765,4.142232480752302 -1.1465858405476013,2.0059536402621134 -0.5987311960401129,2.005953640262142 C-0.05087655153264592,2.0059536402621703 1.9839569892473037,4.206829589703332 1.9839569892473108,9.396217929843196 C1.9839569892473108,14.585606269983053 0.3370522090746917,17.95024507779524 -0.210802435432889,17.950245077795277 C-0.7586570799403489,17.95024507779522 -0.24815373928898765,14.521009161032008 -0.24815373928899476,9.331620820892159 Z " /></g>
					</svg>