<svg id="Capa_1" enable-background="new 0 0 512 512" height="512" viewBox="0 0 512 512" width="512" xmlns="http://www.w3.org/2000/svg"><g><g><g><g><g><g><g id="XMLID_5199_"><g id="XMLID_5200_"><g id="XMLID_5201_"><g id="XMLID_5202_"><g id="XMLID_5203_"><g id="XMLID_5204_"><g id="XMLID_5205_"><g id="XMLID_5206_"><g id="XMLID_5207_"><g id="XMLID_5208_"><g id="XMLID_5209_"><g id="XMLID_5210_"><g id="XMLID_5211_"><g id="XMLID_5305_"><g id="XMLID_5306_"><circle cx="256" cy="256" fill="#ef4d37" r="256"/></g></g></g></g></g></g></g></g></g></g></g></g></g></g></g></g></g></g></g><path d="m289.952 509.768c125.335-16.608 222.048-123.893 222.048-253.768 0-16.518-1.565-32.67-4.553-48.317l-74.318-74.513c-6.742-7.904-49.92 2.011-49.92 2.011l-17.68-14.935-46.916 16.614-16.614-16.614-28.601 19.759-19.047-19.759 5.141 34.841-22.471-22.099-16.083-5.946c-11.219-4.148-23.58 2.221-26.715 13.764l-2.417 14.089 27.479 27.154-6.909-2.479-59.722-59.323-20.327 22.331-24.828-22.331-34.499 7.876-5.452 65.575 21.825 22.738-11.129 81.906z" fill="#c62c18"/><g><g><g><path d="m380.543 286.407-.956-6.608 20.149-12.586c5.759-5.759 15.097-5.759 20.857 0 5.759 5.759 5.76 15.097 0 20.857l-2.132 2.132-4.802 10.546-12.259 6.515z" fill="#ffb985"/></g><path d="m405.43 220.751-59.574 59.574c-2.423-9.31-11.721-37.523-35.49-37.902-5.718-.091-10.014 5.219-8.854 10.818l9.219 44.515c1.895 9.149-.943 18.637-7.549 25.243l-15.372 15.372c7.732 13.047 25.941 34.091 37.161 45.312 9.635 9.635 20.07 17.979 31.087 25.038l46.286-102.4-20.386-20.386 44.329-44.329c5.702-5.702 5.763-14.924.148-20.702l-.148-.148c-5.755-5.753-15.094-5.769-20.857-.005z" fill="#ffdaae"/><g><g><path d="m422.73 328.594-7.457-7.612 21.818-6.748c5.759-5.759 15.097-5.759 20.857 0 5.759 5.759 5.759 15.097 0 20.857l-14.361 14.361z" fill="#ffb985"/></g><path d="m444.528 348.507-34.739 34.739c-6.49 6.49-14.537 9.05-22.823 8.552-4.246-.255-8.408 1.247-11.415 4.254l-15.282 15.282c-1.418-.847-2.82-1.719-4.213-2.611-11.017-7.059-21.447-15.398-31.082-25.033l93.485-93.485c2.882-2.882 6.947-4.386 10.726-4.381 3.769-.005 7.722 1.979 10.599 4.855 5.763 5.763 5.764 15.097.005 20.855l-16.117 16.117z" fill="#ffc999"/></g><path d="m270.489 331.032h69.368v126.246h-69.368z" fill="#80d261" transform="matrix(.707 -.707 .707 .707 -189.327 331.235)"/><path d="m295.14 390.546h69.368v56.521h-69.368z" fill="#08b865" transform="matrix(.707 -.707 .707 .707 -199.537 355.886)"/></g><path d="m107.497 135.802v-15.556h-39.951v73.451h39.951v-15.557h-24.395v-13.391h22.596v-15.556h-22.596v-13.391z" fill="#fff"/><g><g><path d="m210.602 193.697c-10.069 0-19.523-4.059-25.936-11.135l-5.186-5.722 11.444-10.371 5.186 5.722c3.44 3.796 8.858 6.062 14.492 6.062 5.359 0 9.124-3.156 9.67-6.207.726-4.072-5.408-6.673-7.305-7.373-9.011-3.324-17.013-6.886-17.349-7.036-.372-.166-.73-.361-1.071-.583-6.272-4.089-9.504-11.26-8.434-18.713 1.139-7.932 6.931-14.391 15.116-16.857 16.09-4.847 29.324 6.068 29.88 6.535l5.911 4.969-9.939 11.823-5.875-4.939c-.33-.263-7.669-5.966-15.523-3.599-3.462 1.043-4.148 3.328-4.283 4.263-.093.646-.14 2.184 1.203 3.303 2.099.918 8.662 3.746 15.707 6.345 14.909 5.499 18.642 16.301 17.165 24.577-1.958 10.972-12.42 18.936-24.873 18.936z" fill="#fff"/></g></g><path d="m152.652 120.246-13.398.009-27.972 73.442h16.91l5.215-13.696h24.908l5.171 13.696h16.883zm-13.223 43.951 6.488-17.033 6.427 17.033z" fill="#fff"/><path d="m301.998 120.246-25.347 38.876-.088 34.575h-15.803l.087-34.583-25.364-38.868h18.867l14.399 22.054 14.381-22.054z" fill="#fff"/><path d="m332.105 193.697h18.069v-55.383h15.355v-18.068h-48.654v18.068h15.23z" fill="#e0e0e0"/><path d="m405.182 193.697c20.251 0 36.726-16.475 36.726-36.725 0-20.251-16.476-36.726-36.726-36.726-20.251 0-36.725 16.475-36.725 36.726 0 20.25 16.474 36.725 36.725 36.725zm0-55.383c10.288 0 18.658 8.37 18.658 18.658 0 10.287-8.37 18.657-18.658 18.657-10.287 0-18.657-8.37-18.657-18.657 0-10.288 8.37-18.658 18.657-18.658z" fill="#e0e0e0"/><g fill="#ffe029"><path d="m275.288 238.458v-22.023h-51.16v91.174h51.16v-22.023h-29.137v-12.552h26.988v-22.023h-26.988v-12.553z"/><path d="m176.685 238.882c8.575-2.585 16.694 3.743 16.993 3.98l8.312 6.986 14.042-16.706-8.354-7.021c-.693-.582-17.195-14.191-37.287-8.135-10.419 3.138-17.796 11.385-19.251 21.523-1.373 9.566 2.777 18.769 10.829 24.019.478.311.987.588 1.511.823.097.044 9.858 4.402 20.847 8.455 3.852 1.42 8.17 4.09 7.661 6.942-.518 2.903-4.454 6.036-9.906 6.036-6.27 0-12.282-2.503-16.082-6.696l-7.329-8.085-16.171 14.653 7.328 8.086c7.985 8.811 19.741 13.864 32.254 13.864 15.703 0 28.905-10.104 31.391-24.025 1.886-10.563-2.797-24.321-21.592-31.254-8.172-3.014-15.878-6.323-18.443-7.442-.773-.758-.771-1.74-.694-2.277.141-.991.842-2.793 3.941-3.726z"/><path d="m137.558 216.435h-21.824v58.583c0 2.845-.84 6.177-7.065 9.312-1.945.979-4.074 1.456-6.535 1.456-2.621-.004-4.885-.638-6.922-1.94-5.391-3.444-5.842-6.225-5.842-8.777v-58.633h-21.824v58.633c0 11.28 5.355 20.421 15.917 27.169 5.566 3.556 11.838 5.363 18.647 5.373h.049c5.842 0 11.335-1.274 16.326-3.787 15.764-7.939 19.074-20.046 19.074-28.805v-58.584z"/></g></g></g><g><path d="m283.13 120.246-14.381 22.054-12.749-19.528v28.914l4.847 7.428-.087 34.583h15.803l.088-34.575 25.347-38.876z" fill="#e0e0e0"/><g fill="#ffba1f"><path d="m256 251.011h17.139v22.023h-17.139z"/><path d="m256 216.435h19.288v22.023h-19.288z"/><path d="m256 285.586h19.288v22.023h-19.288z"/></g></g></g></svg>