<svg id="Layer_1" enable-background="new 0 0 464 464" height="512" viewBox="0 0 464 464" width="512" xmlns="http://www.w3.org/2000/svg"><path d="m464 46v372c0 17.67-14.33 32-32 32h-400c-17.67 0-32-14.33-32-32v-372c0-17.67 14.33-32 32-32h400c17.67 0 32 14.33 32 32z" fill="#cbe3fa"/><path d="m464 46v8h-392c-17.34 0-31.46 13.79-31.98 31-.025.834-.023 207.831-.021 293.125.001 26.061-39.999 27.387-39.999-.125v-332c0-17.673 14.327-32 32-32h400c17.673 0 32 14.327 32 32z" fill="#eef7ff"/><path d="m464 46v39h-464v-39c0-17.67 14.33-32 32-32h400c17.67 0 32 14.33 32 32z" fill="#585966"/><path d="m402.119 54h-330.119c-17.34 0-31.46 13.79-31.98 31h-40.02v-39c0-17.673 14.327-32 32-32h370c27.503 0 26.19 40 .119 40z" fill="#6e6f80"/><path d="m64 58h-4c-4.418 0-8-3.582-8-8s3.582-8 8-8h4c4.418 0 8 3.582 8 8s-3.582 8-8 8z" fill="#ff6d7a"/><path d="m114 58h-4c-4.418 0-8-3.582-8-8s3.582-8 8-8h4c4.418 0 8 3.582 8 8s-3.582 8-8 8z" fill="#ffe773"/><path d="m164 58h-4c-4.418 0-8-3.582-8-8s3.582-8 8-8h4c4.418 0 8 3.582 8 8s-3.582 8-8 8z" fill="#befa91"/><path d="m268 193c-4.418 0-8-3.582-8-8v-18.56c0-15.682-12.812-28.44-28.56-28.44-15.682 0-28.44 12.759-28.44 28.44v18.56c0 4.418-3.582 8-8 8s-8-3.582-8-8v-18.56c0-24.505 19.936-44.44 44.44-44.44 24.57 0 44.56 19.936 44.56 44.44v18.56c0 4.418-3.582 8-8 8z" fill="#585966"/><path d="m290 198.6v64.8c0 7.51-6.09 13.6-13.6 13.6h-89.8c-7.51 0-13.6-6.09-13.6-13.6v-64.8c0-7.51 6.09-13.6 13.6-13.6h89.8c7.51 0 13.6 6.09 13.6 13.6z" fill="#ff6d7a"/><path d="m232 249c-4.418 0-8-3.582-8-8v-15c0-4.418 3.582-8 8-8s8 3.582 8 8v15c0 4.418-3.582 8-8 8z" fill="#fe4f60"/><g fill="#fff"><path d="m96 324c-4.418 0-8 3.582-8 8v29h-22v-29c0-4.418-3.582-8-8-8s-8 3.582-8 8v74c0 4.418 3.582 8 8 8s8-3.582 8-8v-29h22v29c0 4.418 3.582 8 8 8s8-3.582 8-8v-74c0-4.418-3.582-8-8-8z"/><path d="m174 324h-40c-4.418 0-8 3.582-8 8s3.582 8 8 8h12v66c0 4.418 3.582 8 8 8s8-3.582 8-8v-66h12c4.418 0 8-3.582 8-8s-3.582-8-8-8z"/><path d="m304.422 324h-15.422c-4.418 0-8 3.582-8 8v74c0 4.418 3.582 8 8 8s8-3.582 8-8v-18h7.422c15.522 0 31.578-12.127 31.578-32.422 0-17.412-14.166-31.578-31.578-31.578zm0 48h-7.422v-32h7.422c8.589 0 15.578 6.988 15.578 15.578 0 10.666-8.026 16.422-15.578 16.422z"/><path d="m386.662 361h-1.323c-5.082 0-10.338-3.988-10.338-10.662 0-5.7 4.638-10.338 10.338-10.338h19.661c4.418 0 8-3.582 8-8s-3.582-8-8-8h-19.662c-14.523 0-26.338 11.815-26.338 26.338 0 14.951 11.569 26.662 26.338 26.662h1.323c5.701 0 10.338 4.638 10.338 10.338 0 6.674-5.256 10.662-10.338 10.662h-19.661c-4.418 0-8 3.582-8 8s3.582 8 8 8h19.662c14.769 0 26.338-11.711 26.338-26.662 0-14.523-11.815-26.338-26.338-26.338z"/><path d="m251 324h-39c-4.418 0-8 3.582-8 8s3.582 8 8 8h12v66c0 4.418 3.582 8 8 8s8-3.582 8-8v-66h11c4.418 0 8-3.582 8-8s-3.582-8-8-8z"/></g><path d="m276.324 205h-59.724c-7.511 0-13.6 6.089-13.6 13.6v42.4c0 8.837-7.163 16-16 16-8.448 0-14-6.484-14-13.6v-64.8c0-7.511 6.089-13.6 13.6-13.6h89.8c13.645 0 12.905 20-.076 20z" fill="#ff8c95"/></svg>