<svg id="Capa_1" enable-background="new 0 0 497 497" height="512" viewBox="0 0 497 497" width="512" xmlns="http://www.w3.org/2000/svg"><g><path d="m248.502 212.504v176.65h-113.97c-39.69 0-98.53-47.15-98.53-176.65z" fill="#e3986d"/><path d="m35.998 212.502c0-117.174 95.328-212.502 212.502-212.502s212.502 95.328 212.502 212.502z" fill="#e8a882"/><path d="m461.002 212.504c0 129.5-58.84 176.65-98.53 176.65h-113.97v-176.65z" fill="#e8a882"/><path d="m108.016 204.844c0-92.226 57.912-171.309 140.343-204.842-117.109.076-212.361 95.373-212.361 212.5h72.168c-.089-2.544-.15-5.094-.15-7.658z" fill="#e3986d"/><circle cx="426.237" cy="220.107" fill="#ffbd86" r="39.702"/><path d="m409.658 140.054c-5.057-11.228-16.173-18.496-28.488-18.496h-123.672c-9.065 0-17.659-4.038-23.446-11.016l-21.232-25.605c-4.396-5.301-12.527-5.301-16.922 0l-21.232 25.605c-5.786 6.978-14.38 11.016-23.446 11.016h-35.386c-12.242 0-23.369 7.156-28.41 18.313-9.761 21.606-15.298 45.528-15.565 70.716-1.033 97.351 77.868 177.795 175.222 178.559 98.21.771 178.069-78.613 178.069-176.645 0-25.819-5.536-50.343-15.492-72.447z" fill="#fed2a4"/><path d="m198.873 382.02c-55.189-40.527-90.857-104.803-90.857-177.177 0-29.457 5.922-57.566 16.649-83.286h-8.831c-12.242 0-23.369 7.156-28.409 18.312-5.799 12.835-10.092 26.493-12.69 40.743-1.269-.138-2.592-.208-3.972-.208-21.927 0-39.702 17.775-39.702 39.702s17.775 39.702 39.702 39.702c2.661 0 5.11-.267 7.365-.766 16.186 58.833 62.218 105.737 120.745 122.978z" fill="#ffbd86"/><g><g><g><ellipse cx="141.36" cy="258.867" fill="#ffa0ab" rx="39.532" ry="31.482"/></g><g><ellipse cx="355.64" cy="258.867" fill="#ffa0ab" rx="39.532" ry="31.482"/></g></g></g><g><path d="m164.399 236.061c-4.143 0-7.5-3.358-7.5-7.5v-16.161c0-4.142 3.357-7.5 7.5-7.5s7.5 3.358 7.5 7.5v16.161c0 4.143-3.357 7.5-7.5 7.5z" fill="#423e4f"/></g><g><path d="m332.6 236.061c-4.143 0-7.5-3.358-7.5-7.5v-16.161c0-4.142 3.357-7.5 7.5-7.5s7.5 3.358 7.5 7.5v16.161c0 4.143-3.357 7.5-7.5 7.5z" fill="#423e4f"/></g><g><path d="m248.5 245.682c-10.665 0-20.808-4.62-27.826-12.674-2.722-3.123-2.396-7.86.728-10.582 3.122-2.72 7.86-2.396 10.581.727 4.169 4.784 10.189 7.529 16.518 7.529s12.349-2.744 16.519-7.529c2.722-3.123 7.459-3.448 10.582-.726s3.448 7.459.727 10.582c-7.022 8.053-17.164 12.673-27.829 12.673z" fill="#423e4f"/></g><path d="m351.237 314.913-102.737 20.072-63.255 70.783 63.255 91.232 94.889-18.539c18.368-3.589 31.621-19.683 31.621-38.397v-105.574c0-12.551-11.454-21.984-23.773-19.577z" fill="#ff6f7f"/><path d="m145.763 314.913c-12.319-2.407-23.773 7.026-23.773 19.578v105.573c0 18.715 13.254 34.809 31.621 38.397l94.889 18.539v-162.015z" fill="#ff8997"/><path d="m387.64 411.577c14.782 2.684 25.528 15.556 25.528 30.58v10.367c0 15.024-10.746 27.896-25.528 30.58-22.309 4.05-42.84-13.09-42.84-35.763-.001-22.675 20.531-39.814 42.84-35.764z" fill="#fed2a4"/><path d="m146.399 378.08c0-25.271 3.098-45.326 9.54-61.179l-10.177-1.988c-12.319-2.407-23.773 7.026-23.773 19.578v105.573c0 18.715 13.254 34.809 31.621 38.397l61.475 12.011c-40.48-25.794-68.686-68.446-68.686-112.392z" fill="#ff6f7f"/><path d="m109.36 411.577c-14.782 2.684-25.528 15.556-25.528 30.58v10.367c0 15.024 10.746 27.896 25.528 30.58 22.309 4.05 42.84-13.09 42.84-35.763.001-22.675-20.531-39.814-42.84-35.764z" fill="#fed2a4"/></g></svg>