<?xml version="1.0" encoding="UTF-8"?>
<!-- Generator: Adobe Illustrator 25.4.1, SVG Export Plug-In . SVG Version: 6.00 Build 0)  -->
<svg xmlns="http://www.w3.org/2000/svg" xmlns:xlink="http://www.w3.org/1999/xlink" version="1.1" id="Capa_1" x="0px" y="0px" viewBox="0 0 512 512" style="enable-background:new 0 0 512 512;" xml:space="preserve" width="512" height="512">
<g>
	<path id="path28712-2_1_" d="M254.707,0.005c-12.354-0.134-24.86,2.369-35.736,8.23c-11.559,6.229-21.028,16.193-26.863,27.957   c-5.831,11.758-8.123,24.316-8.469,38.146c-0.659,26.278,0.593,53.84,2.575,78.817c0.526,7.605,1.471,12.056,0.505,19.861   c-3.251,16.597-17.775,27.769-25.516,42.347c-8.54,16.082-12.139,34.265-18.585,51.295c-5.899,15.585-14.18,30.197-19.77,45.895   c-7.816,21.951-10.152,46.071-4.989,68.792c3.936,17.321,12.159,33.562,23.241,47.454c-1.604,2.89-3.158,5.811-4.814,8.671   c-5.135,8.871-11.409,17.281-14.333,27.105c-1.462,4.912-2.038,10.151-1.094,15.188c0.944,5.037,3.493,9.856,7.5,13.051   c2.623,2.091,5.787,3.438,9.055,4.194c3.269,0.756,6.647,0.94,10.001,0.868c12.745-0.271,25.093-4.145,37.422-7.382   c7.307-1.918,14.668-3.621,22.066-5.15c26.267-5.381,55.584-3.233,79.968,0.303c8.259,1.247,16.459,2.88,24.577,4.847   c12.715,3.081,25.385,7.01,38.463,7.382c3.442,0.098,6.912-0.053,10.274-0.801c3.361-0.749,6.622-2.115,9.314-4.262   c4.014-3.201,6.564-8.027,7.507-13.074c0.943-5.047,0.361-10.301-1.118-15.219c-2.956-9.835-9.288-18.226-14.539-27.051   c-2.072-3.482-3.999-7.054-6.056-10.543c15.802-17.745,28.521-38.267,35.877-60.808c8.029-24.604,9.504-51.095,6.123-76.754   c-3.381-25.659-11.517-50.535-22.231-74.094c-13.439-29.538-24.737-40.211-32.925-66.15c-8.85-28.035-1.542-61.209-8.119-86.637   c-2.347-8.647-6.089-16.902-10.903-24.459c-5.641-8.855-12.796-16.791-21.298-22.951C288.253,5.247,271.458,0.187,254.707,0.005   L254.707,0.005z"/>
	<path id="path29719-5_1_" style="fill:#FCFCFA;" d="M206.262,148.01c-1.803,2.26-2.978,4.976-3.687,7.779   c-0.709,2.803-0.969,5.701-1.08,8.591c-0.221,5.779,0.132,11.668-1.398,17.246c-1.635,5.962-5.301,11.128-8.889,16.163   c-6.213,8.72-12.493,17.666-15.558,27.925c-1.856,6.213-2.474,12.793-1.807,19.243c-6.955,10.214-12.976,21.063-17.964,32.369   c-7.56,17.135-12.747,35.378-14.572,54.017c-2.234,22.823,0.685,46.297,9.699,67.383c6.517,15.246,16.232,29.203,28.758,40.066   c6.369,5.523,13.443,10.237,21.009,13.955c26.219,12.887,58.623,12.911,84.406-0.828c13.475-7.18,24.849-17.68,35.816-28.304   c6.604-6.398,13.174-12.948,18.212-20.64c9.699-14.809,13.077-32.808,15.176-50.386c3.671-30.736,3.789-63.201-9.689-91.067   c-4.64-9.594-10.822-18.44-18.236-26.095c-1.974-13.41-5.871-26.536-11.534-38.852c-4.086-8.885-9.08-17.342-12.876-26.354   c-1.558-3.7-2.913-7.488-4.642-11.111c-1.73-3.623-3.863-7.109-6.764-9.885c-2.97-2.842-6.672-4.857-10.575-6.147   c-3.904-1.289-8.013-1.873-12.119-2.08c-8.212-0.413-16.44,0.661-24.656,0.335c-6.54-0.26-13.06-1.406-19.594-1.02   c-3.267,0.193-6.534,0.777-9.566,2.008C211.1,143.551,208.304,145.452,206.262,148.01"/>
	
		<radialGradient id="path4400-1_00000124139538414417298970000017767101566874490011_" cx="2997.7776" cy="8238.3691" r="47.2091" gradientTransform="matrix(-0.8062 0 0 -0.7634 2579.2119 6531.207)" gradientUnits="userSpaceOnUse">
		<stop offset="0" style="stop-color:#000000"/>
		<stop offset="1" style="stop-color:#000000;stop-opacity:0.2489"/>
	</radialGradient>
	
		<path id="path4400-1_1_" style="opacity:0.25;fill:url(#path4400-1_00000124139538414417298970000017767101566874490011_);enable-background:new    ;" d="   M177.329,230.358c1.751,2.626-1.089,11.682,39.717,5.886c0,0-7.166,0.788-14.23,2.42c-10.984,3.677-20.552,7.785-27.932,13.228   c-7.312,5.38-12.667,12.404-19.377,18.437c0,0,10.866-19.853,13.575-25.831c2.709-5.978-0.454-5.705,1.689-14.501   c2.142-8.796,7.388-17.247,7.388-17.247S173.876,225.178,177.329,230.358z"/>
	
		<radialGradient id="path4400-2-8_00000168092356491039915990000000183989474189943178_" cx="458.4622" cy="8211.0889" r="47.2091" gradientTransform="matrix(1 0 0 -0.7634 -166.9881 6531.207)" gradientUnits="userSpaceOnUse">
		<stop offset="0" style="stop-color:#000000"/>
		<stop offset="1" style="stop-color:#000000;stop-opacity:0.2489"/>
	</radialGradient>
	
		<path id="path4400-2-8_1_" style="opacity:0.42;fill:url(#path4400-2-8_00000168092356491039915990000000183989474189943178_);enable-background:new    ;" d="   M308.546,227.988c-8.316,5.793-13.189,5.107-23.279,6.241c-10.09,1.133-37.397,0.723-37.397,0.723s3.953-0.074,12.715,1.558   c8.762,1.632,26.634,3.193,36.697,7.023c10.063,3.83,13.734,4.923,19.85,8.791c8.706,5.505,15.095,14.128,23.417,20.16   c0,0,0.403-8.004-2.957-13.982c-3.36-5.978-12.393-15.4-15.05-24.196s-3.92-26.08-3.92-26.08S316.862,222.194,308.546,227.988   L308.546,227.988z"/>
	
		<radialGradient id="path4491-9_00000009559821608552246610000005742608916202594227_" cx="395.3968" cy="7009.6309" r="18.6922" gradientTransform="matrix(1 0 0 -1.0692 -166.9881 7749.8911)" gradientUnits="userSpaceOnUse">
		<stop offset="0" style="stop-color:#000000"/>
		<stop offset="1" style="stop-color:#000000;stop-opacity:0.2489"/>
	</radialGradient>
	
		<path id="path4491-9_1_" style="opacity:0.2;fill:url(#path4491-9_00000009559821608552246610000005742608916202594227_);enable-background:new    ;" d="   M230.332,215.616c-0.309,2.509-0.71,5.007-1.201,7.487c-0.242,1.223-0.508,2.447-0.964,3.607c-0.455,1.16-1.11,2.261-2.036,3.096   c-0.811,0.732-1.8,1.234-2.793,1.689c-3.875,1.774-8.022,2.952-12.251,3.48c1.689,0.124,3.376,0.278,5.059,0.462   c1.061,0.116,2.123,0.245,3.157,0.51c1.033,0.265,2.042,0.671,2.903,1.302c0.944,0.691,1.686,1.634,2.239,2.665   c1.103,2.054,1.472,4.417,1.676,6.739c0.261,2.97,0.28,5.962,0.057,8.935c0.2-1.989,0.617-3.957,1.241-5.856   c1.125-3.423,2.937-6.632,5.377-9.284c0.968-1.052,2.034-2.017,3.204-2.84c3.582-2.521,8.132-3.629,12.472-3.036   c-4.41,0.195-8.874-1.191-12.399-3.849c-1.795-1.354-3.359-3.038-4.446-5.006C229.945,222.675,229.472,218.985,230.332,215.616"/>
	<path id="path4542-7_1_" style="opacity:0.11;enable-background:new    ;" d="M219.698,274.286   c-2.119,8.065-3.577,16.304-4.353,24.606c-1.098,11.741-0.834,23.565-1.464,35.34c-0.535,9.992-1.708,20.089,0.027,29.944   c0.828,4.699,2.314,9.282,4.403,13.572c0.332-1.637,0.575-3.293,0.728-4.957c0.735-7.99-0.61-16.006-1.065-24.017   c-0.797-14.042,1.147-28.076,1.939-42.118C220.521,295.876,220.449,285.057,219.698,274.286L219.698,274.286"/>
	<path id="path28767-9-3_1_" style="opacity:0.25;fill:#7D7D7D;enable-background:new    ;" d="M181.908,194.872   c-0.203-2.474-3.738-2.845-5.313-1.612c-1.331,1.042-2.58,4.604-1.431,5.994C177.03,201.512,182.187,198.264,181.908,194.872z"/>
	<path id="path15189-4_1_" style="opacity:0.75;fill:#7D7D7D;enable-background:new    ;" d="M360.16,262.466   c2.047-0.317,14.68,10.423,12.951,14.413c-1.728,3.99-4.972,1.584-7.292,1.612s-8.669,2.91-9.733,1.09   c-1.064-1.82,2.808-6.067,4.834-9.618C362.551,267.104,358.113,262.783,360.16,262.466L360.16,262.466z"/>
	<path id="path28767-3_1_" style="fill:#7D7D7D;" d="M283.025,22.253c-4.418,3.118-2.488,7.011-0.588,10.918   c1.9,3.907-4.179,15.171-4.243,15.657c-0.064,0.486,11.965-5.71,15.244-9.735c3.872-4.753,13.657,6.43,13.124,4.729   C306.565,40.778,287.443,19.135,283.025,22.253z"/>
	<path id="path4596-3_1_" style="fill:#838384;" d="M316.538,153.263c-3.727,3.394,1.747,8.493,4.343,14.485   c1.614,3.725,6.078,8.971,10.397,8.131c3.248-0.632,5.264-5.307,4.957-8.602c-0.593-6.357-5.958-7.846-9.854-10.03   C323.293,155.516,319.155,150.88,316.538,153.263z"/>
	<path id="path28461-8-7_1_" style="fill-opacity:0.2588;" d="M202.235,178.666c2.935,8.51,8.842,15.774,15.832,21.447   c2.324,1.887,4.795,3.627,7.525,4.855c2.73,1.228,5.742,1.929,8.725,1.676c2.921-0.248,5.7-1.395,8.253-2.836   c2.553-1.442,4.922-3.183,7.399-4.752c4.244-2.689,8.79-4.863,13.197-7.275c5.313-2.907,10.461-6.188,14.934-10.271   c2.047-1.869,3.957-3.909,6.218-5.513s4.969-2.767,7.735-2.579c2.075,0.141,4.021,1.024,6.054,1.461   c1.017,0.219,2.07,0.326,3.098,0.17c1.028-0.157,2.033-0.594,2.754-1.343c0.883-0.918,1.269-2.24,1.223-3.513   c-0.046-1.273-0.49-2.504-1.084-3.632c-1.187-2.255-2.99-4.197-3.792-6.615c-0.714-2.152-0.57-4.479-0.507-6.746   c0.063-2.267,0.013-4.635-1.032-6.647c-0.796-1.533-2.13-2.749-3.657-3.557c-1.526-0.808-3.238-1.224-4.957-1.385   c-3.438-0.323-6.884,0.345-10.332,0.54c-4.577,0.26-9.172-0.313-13.749-0.038c-5.707,0.343-11.301,2-17.018,2.01   c-6.525,0.012-13.044-2.123-19.489-1.103c-2.766,0.438-5.403,1.444-8.059,2.331c-2.656,0.887-5.399,1.667-8.199,1.626   c-3.178-0.046-6.255-1.147-9.426-1.373c-1.585-0.113-3.21,0-4.698,0.557c-1.488,0.557-2.834,1.592-3.565,3.003   c-0.419,0.809-0.626,1.718-0.665,2.628c-0.039,0.91,0.087,1.822,0.306,2.706c0.44,1.768,1.248,3.417,1.913,5.113   C199.573,165.736,200.09,172.448,202.235,178.666"/>
	<path id="path28461-84-3_1_" style="opacity:0.3;enable-background:new    ;" d="M194.051,154.408   c5.702,3.523,10.818,7.849,15.114,12.782c3.987,4.578,7.378,9.77,12.58,13.159c3.675,2.394,8.092,3.743,12.571,4.153   c5.259,0.481,10.582-0.297,15.652-1.67c4.699-1.273,9.244-3.063,13.413-5.432c7.925-4.503,14.545-11.101,23.285-14.061   c1.908-0.646,3.894-1.108,5.733-1.905c1.839-0.797,3.57-1.991,4.449-3.679c0.844-1.623,0.812-3.497,1.087-5.279   c0.294-1.906,0.954-3.75,1.317-5.646c0.362-1.896,0.405-3.925-0.485-5.667c-0.737-1.443-2.078-2.584-3.619-3.309   c-1.542-0.725-3.277-1.055-5.006-1.133c-3.458-0.156-6.873,0.659-10.32,0.949c-4.567,0.384-9.165-0.157-13.749-0.03   c-5.702,0.158-11.32,1.348-17.018,1.596c-6.501,0.283-12.985-0.663-19.489-0.875c-2.813-0.092-5.645-0.045-8.418,0.401   c-2.773,0.446-5.495,1.304-7.839,2.74c-2.275,1.393-4.131,3.282-6.216,4.907c-1.043,0.813-2.151,1.564-3.367,2.135   c-1.217,0.571-2.549,0.96-3.913,1.02c-0.702,0.031-1.41-0.024-2.105,0.075c-1.165,0.166-2.247,0.784-2.927,1.671   S193.83,153.34,194.051,154.408L194.051,154.408"/>
	<path id="path29705-5-0_1_" d="M365.51,254.239c10.487,8.436,17.141,21.175,19.202,34.476c1.607,10.373,0.562,21.018-1.776,31.251   s-5.95,20.124-9.534,29.99c-1.429,3.934-2.865,7.906-3.433,12.053c-0.568,4.147-0.208,8.539,1.792,12.216   c2.293,4.215,6.572,7.118,11.172,8.485c4.541,1.349,9.447,1.32,14.044,0.175c4.597-1.146,12.336-2.63,16.078-5.536   c9.506-7.382,11.763-20.198,14.015-31.453c2.349-11.738,1.2-24.044-0.864-35.901c-2.815-16.169-7.552-31.973-13.581-47.238   c-4.435-11.228-10.116-21.962-16.876-31.92c-6.631-9.77-16.04-17.395-22.992-26.947c-2.415-3.319-5.32-6.776-7.693-10.132   c-5.116-7.235-3.958-5.885-7.131-10.568c-2.303-3.398-5.939-4.565-9.765-6.051c-3.826-1.486-8.122-1.924-12.073-0.812   c-5.208,1.466-9.462,5.569-11.725,10.483c-2.263,4.914-2.659,10.553-1.779,15.891c1.136,6.886,4.285,13.275,7.836,19.284   c4.01,6.786,8.655,13.318,14.712,18.362C351.458,245.612,359.101,249.084,365.51,254.239"/>
	<path id="path14967-1-0_1_" d="M167.946,201.821c-12.191,13.852-24.736,27.26-31.619,42.235c-3.406,7.606-5.017,15.869-7.351,23.87   c-2.651,9.086-6.25,17.873-10.291,26.432c-3.731,7.903-7.842,15.62-11.959,23.329c-2.996,5.608-6.041,11.343-7.08,17.616   c-0.821,4.957-0.342,10.073,0.92,14.936c1.262,4.864,3.291,9.498,5.58,13.971c9.768,19.088,24.422,35.542,41.781,48.129   c7.878,5.712,16.316,10.653,25.168,14.695c4.796,2.19,9.847,4.144,15.118,4.235c2.636,0.046,5.298-0.389,7.712-1.449   c2.413-1.06,4.568-2.764,6.002-4.976c1.763-2.72,2.361-6.098,2.007-9.32c-0.354-3.221-1.611-6.296-3.298-9.064   c-4.119-6.76-10.626-11.652-16.884-16.5c-13.513-10.468-26.585-21.51-39.093-33.16c-3.532-3.289-7.064-6.683-9.531-10.831   c-2.403-4.039-3.701-8.641-4.581-13.258c-2.412-12.666-1.794-25.996,2.516-38.147c1.686-4.754,3.914-9.293,6.064-13.856   c3.725-7.909,7.251-15.969,12.15-23.211c6.098-9.015,14.249-16.65,19.22-26.332c4.195-8.172,5.894-17.36,7.518-26.401   c1.27-7.074,3.706-14.002,4.945-21.082C180.536,188.275,172.725,195.819,167.946,201.821L167.946,201.821z"/>
	<path style="fill:#838384;" d="M386.67,319.69c-3.44,12.59-8.42,24.62-12.76,36.9c-1.47,4.14-2.86,8.34-3.86,12.63   c-0.43-2.36-0.41-4.83-0.08-7.21c0.57-4.15,2-8.12,3.43-12.05c3.59-9.87,7.2-19.76,9.54-29.99c2.33-10.24,3.38-20.88,1.77-31.26   c-2.06-13.3-8.71-26.03-19.2-34.47c-6.26-5.04-13.7-8.47-19.93-13.53c7.09,3.87,14.5,7.25,20.97,12.03   c11.21,8.3,19.13,20.86,21.38,34.47C389.72,298.04,390.1,307.1,386.67,319.69z"/>
	<path style="opacity:0.95;fill:#7D7D7D;enable-background:new    ;" d="M133.06,294.56c-4.31,12.15-4.92,25.48-2.51,38.15   c0.88,4.62,2.18,9.22,4.58,13.26c2.47,4.15,6,7.54,9.53,10.83c0.54,0.51,1.09,1.01,1.63,1.5c-0.24-0.02-0.48-0.04-0.71-0.07   c-2.59-0.33-5.04-1.5-7.09-3.12c-2.05-1.63-3.72-3.7-5.07-5.94c-1.67-2.75-2.9-5.78-4.82-8.36c-2.3-3.09-5.55-5.45-9.2-6.66   c2.7-0.96,5.03-2.92,6.43-5.42c1.68-2.99,2-6.55,1.88-9.97c-0.11-3.42-0.62-6.84-0.44-10.26c0.35-6.66,3.25-12.87,5.73-19.05   c3.35-8.31,6.05-16.95,10.65-24.63c2.79-4.67,6.26-8.93,10.26-12.61c0.42-0.97,1.1-1.82,1.95-2.44c0.61-0.46,1.3-0.79,2.04-0.99   c-2.31,2.84-4.58,5.7-6.62,8.72c-4.9,7.24-8.43,15.3-12.15,23.21C136.98,285.27,134.75,289.81,133.06,294.56z"/>
	
		<linearGradient id="path14483-7-4_00000100375806377123726810000016096468401761401754_" gradientUnits="userSpaceOnUse" x1="565.0201" y1="7054.873" x2="571.3915" y2="7007.3286" gradientTransform="matrix(1.0269 0 0 -1 -210.9429 7474.1729)">
		<stop offset="0" style="stop-color:#000000"/>
		<stop offset="1" style="stop-color:#000000;stop-opacity:0"/>
	</linearGradient>
	
		<path id="path14483-7-4_1_" style="opacity:0.2;fill:url(#path14483-7-4_00000100375806377123726810000016096468401761401754_);enable-background:new    ;" d="   M436.096,431.214c-0.808,2.67-2.039,5.25-3.628,7.602c-3.505,5.192-8.592,9.099-13.675,12.703   c-8.67,6.146-17.703,11.785-25.775,18.77c-5.408,4.68-10.338,9.926-14.907,15.451c-3.908,4.725-7.582,9.685-12.037,13.887   c-4.495,4.24-9.788,7.664-15.489,9.53c-6.934,2.269-14.261,2.16-20.941,0.447c-4.681-1.2-9.245-3.287-12.145-7.061   c-2.911-3.789-3.854-8.88-4.191-13.877c-0.596-8.839,0.46-17.872,1.422-26.845c0.799-7.455,1.537-14.917,1.838-22.357   c0.548-13.533-0.348-26.949-2.18-40.112c-0.307-2.205-0.641-4.426-0.454-6.697c0.186-2.271,0.948-4.633,2.542-6.386   c1.473-1.619,3.527-2.578,5.576-3.049c2.049-0.471,4.123-0.499,6.182-0.554c4.85-0.129,9.728-0.414,14.504,0.01   c3.014,0.268,5.969,0.818,8.979,1.108c5.022,0.483,10.232,0.229,15.269-1.247c5.423-1.589,10.595-4.57,16.105-5.39   c2.261-0.336,4.529-0.297,6.727,0.01c2.243,0.314,4.475,0.934,6.199,2.303c1.31,1.04,2.269,2.469,3.019,3.993   c1.118,2.269,1.804,4.775,2.197,7.344c0.348,2.276,0.471,4.619,1.058,6.821c0.965,3.621,3.152,6.698,5.783,9.203   c2.631,2.505,5.708,4.485,8.779,6.436c3.06,1.943,6.138,3.872,9.406,5.474c1.534,0.752,3.111,1.432,4.577,2.298   c1.466,0.866,2.833,1.932,3.807,3.336C435.963,426.267,436.493,428.763,436.096,431.214L436.096,431.214"/>
	
		<linearGradient id="path14296-0_00000020399430821989455090000008655538066719250325_" gradientUnits="userSpaceOnUse" x1="604.9669" y1="6971.2324" x2="687.8392" y2="7105.5952" gradientTransform="matrix(1 0 0 -1 -266.9881 7474.1729)">
		<stop offset="0" style="stop-color:#422600"/>
		<stop offset="1" style="stop-color:#BE7900"/>
	</linearGradient>
	<path id="path14296-0_1_" style="fill:url(#path14296-0_00000020399430821989455090000008655538066719250325_);" d="   M465.626,445.833c-4.522,5.368-10.803,8.911-17.057,12.099c-10.666,5.437-21.719,10.206-31.747,16.747   c-6.718,4.382-12.919,9.525-18.718,15.068c-4.959,4.74-9.662,9.802-15.223,13.819c-5.611,4.052-12.098,6.988-18.942,8.015   c-8.325,1.249-16.927-0.367-24.645-3.73c-5.408-2.357-10.609-5.727-13.724-10.736c-3.127-5.028-3.84-11.182-3.848-17.104   c-0.014-10.473,1.927-20.837,3.755-31.15c1.518-8.569,2.964-17.157,3.895-25.81c1.695-15.738,1.683-31.631,0.551-47.42   c-0.189-2.644-0.409-5.314-0.014-7.935c0.395-2.621,1.473-5.234,3.483-6.963c1.856-1.597,4.345-2.303,6.79-2.438   s4.885,0.253,7.307,0.607c5.709,0.834,11.464,1.491,17.044,2.958c3.521,0.926,6.951,2.17,10.466,3.121   c5.864,1.586,12.007,2.346,18.041,1.641c6.496-0.76,12.805-3.2,19.344-3.042c2.683,0.065,5.345,0.572,7.905,1.379   c2.612,0.823,5.186,2.002,7.106,3.956c1.459,1.484,2.475,3.353,3.238,5.289c1.137,2.884,1.749,5.958,2.011,9.047   c0.232,2.737,0.196,5.506,0.714,8.203c0.853,4.437,3.184,8.485,6.081,11.952c2.897,3.467,6.359,6.412,9.818,9.32   c3.445,2.897,6.912,5.782,10.629,8.322c1.744,1.192,3.544,2.309,5.2,3.62c1.656,1.312,3.179,2.838,4.215,4.68   c1.405,2.498,1.833,5.529,0.927,8.405C469.322,440.629,467.675,443.4,465.626,445.833L465.626,445.833z"/>
	<path id="path14296-3-7_1_" style="fill:#E18900;" d="M465.112,432.235c-1.064,2.667-2.568,5.158-4.432,7.342   c-4.141,4.85-9.874,8.022-15.577,10.877c-9.743,4.878-19.825,9.165-28.992,15.056c-6.125,3.936-11.79,8.558-17.093,13.546   c-4.531,4.262-8.833,8.818-13.902,12.423c-5.138,3.655-11.061,6.285-17.299,7.205c-7.599,1.121-15.443-0.333-22.506-3.353   c-4.924-2.106-9.682-5.119-12.534-9.652c-2.837-4.51-3.501-10.048-3.514-15.377c-0.023-9.418,1.755-18.736,3.429-28.004   c1.391-7.702,2.715-15.422,3.557-23.203c1.531-14.147,1.462-28.434,0.504-42.631c-0.16-2.379-0.345-4.781,0.02-7.137   c0.365-2.356,1.341-4.701,3.147-6.257c1.694-1.46,3.969-2.099,6.202-2.216s4.459,0.244,6.672,0.57   c5.21,0.767,10.466,1.343,15.565,2.66c3.215,0.83,6.349,1.95,9.557,2.806c5.359,1.429,10.965,2.111,16.475,1.475   c5.931-0.685,11.697-2.881,17.666-2.734c2.448,0.06,4.878,0.518,7.219,1.239c2.382,0.734,4.738,1.783,6.489,3.556   c1.32,1.336,2.233,3.022,2.957,4.755c1.078,2.58,1.78,5.338,1.837,8.134c0.06,2.919-0.578,5.851-0.183,8.744   c0.321,2.349,1.316,4.564,2.586,6.565c1.27,2.001,2.816,3.811,4.348,5.62c2.96,3.497,5.928,7.061,9.64,9.746   c4.226,3.057,9.241,4.846,13.607,7.699c1.301,0.851,2.561,1.813,3.478,3.069C465.583,426.873,465.999,429.769,465.112,432.235   L465.112,432.235"/>
	<path id="path14296-3-1-9_1_" style="fill:#FFC000;" d="M464.503,429.225c-1.185,2.686-2.723,5.19-4.553,7.415   c-4.242,5.156-9.97,8.706-16.003,10.986c-9.932,3.753-20.774,4.257-30.524,8.53c-5.942,2.604-11.289,6.528-16.703,10.234   c-4.377,2.996-8.85,5.881-13.656,7.978c-5.428,2.369-11.2,3.697-16.992,4.627c-3.685,0.592-7.412,1.028-11.133,0.822   c-3.721-0.206-7.455-1.078-10.739-2.975c-2.49-1.439-4.73-3.511-6.059-6.198c-1.477-2.986-1.733-6.491-1.699-9.874   c0.09-9.018,2.02-17.938,1.962-26.956c-0.05-7.85-1.606-15.6-2.053-23.435c-0.86-15.068,2.373-30.4-0.473-45.181   c-0.456-2.366-1.068-4.73-1.038-7.146c0.016-1.208,0.195-2.423,0.621-3.541c0.427-1.117,1.109-2.135,2.018-2.841   c0.766-0.595,1.675-0.956,2.607-1.119c0.932-0.163,1.886-0.131,2.82,0.015c1.868,0.29,3.648,1.024,5.467,1.566   c5.204,1.549,10.702,1.517,15.991,2.686c3.32,0.734,6.534,1.936,9.819,2.834c5.516,1.508,11.268,2.152,16.926,1.49   c6.084-0.712,12.031-2.921,18.149-2.762c2.508,0.065,4.999,0.531,7.416,1.252c2.419,0.721,4.837,1.741,6.667,3.592   c1.319,1.334,2.268,3.039,3.038,4.803c1.124,2.574,1.905,5.37,1.887,8.215c-0.01,1.48-0.234,2.947-0.368,4.42   c-0.133,1.473-0.173,2.981,0.18,4.411c0.355,1.437,1.092,2.733,1.936,3.909c0.844,1.176,1.802,2.251,2.676,3.402   c2.447,3.222,4.195,6.978,6.101,10.6c1.906,3.622,4.043,7.206,7.053,9.815c4.097,3.551,9.412,4.97,13.979,7.776   c1.337,0.822,2.633,1.786,3.573,3.1c0.753,1.052,1.256,2.311,1.448,3.624C465.038,426.61,464.919,427.974,464.503,429.225   L464.503,429.225"/>
	
		<linearGradient id="path16493_00000124143400356822905360000007868975587479902107_" gradientUnits="userSpaceOnUse" x1="548.3278" y1="7109.0884" x2="545.8903" y2="7087.1514" gradientTransform="matrix(1 0 0 -1 -166.9881 7472.1729)">
		<stop offset="0" style="stop-color:#FFCD00"/>
		<stop offset="1" style="stop-color:#FFCD00;stop-opacity:0"/>
	</linearGradient>
	<path id="path16493_1_" style="fill:url(#path16493_00000124143400356822905360000007868975587479902107_);" d="M334.845,363.166   c5.646-1.529,10.455,2.753,14.55,5.985c2.646,2.257,6.469,1.689,9.715,1.796c5.379-0.195,10.729,0.901,16.11,0.234   c10.59-0.895,20.973-3.498,31.613-3.947c5.083-0.32,10.789-0.616,15.181,2.353c1.78,1.233,4.39,6.448,6.147,4.49   c-0.724-5.478-4.787-10.782-10.236-12.241c-4.266-0.671-8.6,0.502-12.908,0.123c-12.794-0.305-25.497-2.681-38.321-2   c-8.922,0.077-17.832-0.336-26.741-0.684c-3.5-0.715-4.734,2.394-6.634,3.586"/>
	
		<linearGradient id="path4635-1_00000039825543885590721510000016152566482026894755_" gradientUnits="userSpaceOnUse" x1="175.2415" y1="7083.96" x2="257.5044" y2="6945.9409" gradientTransform="matrix(1 0 0 -1 -96.9881 7474.1729)">
		<stop offset="0" style="stop-color:#CA8300"/>
		<stop offset="1" style="stop-color:#3B2100"/>
	</linearGradient>
	<path id="path4635-1_1_" style="fill:url(#path4635-1_00000039825543885590721510000016152566482026894755_);" d="M111.25,350.014   c2.756-1.143,5.857-1.351,8.791-0.809s5.707,1.809,8.175,3.486c4.936,3.354,8.597,8.235,12.104,13.063   c8.052,11.089,15.802,22.41,22.828,34.176c5.699,9.544,10.933,19.401,17.518,28.357c4.298,5.846,9.146,11.271,13.466,17.101   c4.32,5.83,8.149,12.161,10.064,19.16c2.489,9.094,1.525,19.119-2.804,27.495c-3.045,5.893-7.715,10.948-13.396,14.372   c-5.681,3.424-12.359,5.195-18.987,4.947c-10.538-0.395-20.164-5.662-29.961-9.564c-19.96-7.95-41.64-10.443-62.213-16.635   c-6.323-1.903-12.54-4.155-18.907-5.905c-2.829-0.778-5.703-1.462-8.374-2.674c-2.672-1.212-5.17-3.015-6.656-5.544   c-1.149-1.955-1.635-4.257-1.603-6.524c0.031-2.267,0.562-4.506,1.334-6.638c1.544-4.264,4.039-8.124,5.722-12.335   c2.749-6.876,3.243-14.458,2.872-21.853c-0.371-7.396-1.57-14.727-2.076-22.115c-0.226-3.299-0.311-6.64,0.318-9.886   c0.63-3.246,2.026-6.419,4.408-8.713c2.196-2.115,5.11-3.37,8.094-3.993c2.984-0.623,6.059-0.651,9.106-0.582   c3.048,0.069,6.102,0.231,9.141-0.018c3.038-0.25,6.09-0.932,8.737-2.444c2.516-1.438,4.575-3.575,6.28-5.919   c1.705-2.344,3.084-4.905,4.496-7.435c1.413-2.531,2.875-5.052,4.725-7.284C106.304,353.069,108.572,351.124,111.25,350.014"/>
	<path id="path13596-6_1_" style="fill:#EC9A00;" d="M115.615,354.771c2.508-1.01,5.333-1.121,7.967-0.524   c2.634,0.597,5.084,1.879,7.219,3.528c4.27,3.298,7.238,7.952,10.09,12.528c6.843,11.087,13.532,22.292,19.848,33.724   c4.786,8.606,9.35,17.395,15.232,25.299c3.902,5.242,8.354,10.051,12.337,15.23c3.982,5.18,7.534,10.827,9.295,17.12   c2.269,8.111,1.349,17.08-2.577,24.53c-2.822,5.353-7.156,9.904-12.385,12.948c-5.229,3.044-11.339,4.566-17.384,4.288   c-9.649-0.444-18.461-5.263-27.543-8.533c-17.413-6.318-36.286-7.166-54.146-12.099c-6.402-1.738-12.645-4.055-19.079-5.677   c-2.847-0.718-5.745-1.305-8.449-2.446c-2.704-1.141-5.251-2.91-6.717-5.454c-1.091-1.891-1.526-4.116-1.459-6.298   c0.067-2.182,0.619-4.327,1.396-6.366c1.554-4.08,3.999-7.774,5.565-11.849c2.376-6.16,2.671-12.933,2.23-19.521   c-0.441-6.587-1.588-13.115-1.988-19.706c-0.179-2.945-0.206-5.927,0.39-8.817c0.596-2.89,1.855-5.704,3.955-7.776   c2.277-2.256,5.414-3.489,8.578-3.971c3.165-0.483,6.387-0.272,9.574,0.012c3.186,0.284,6.386,0.642,9.585,0.451   c3.199-0.191,6.439-0.971,9.081-2.77c2.408-1.628,4.215-4.006,5.592-6.547c1.376-2.541,2.357-5.266,3.406-7.957   c1.049-2.691,2.183-5.381,3.829-7.773C110.702,357.954,112.91,355.857,115.615,354.771"/>
	<path id="path4635-2-4_1_" style="fill:#FFBD00;" d="M113.277,348.509c2.429-1.205,5.292-1.452,7.956-0.909   c2.664,0.544,5.133,1.846,7.231,3.547c4.197,3.403,6.86,8.251,9.34,13.008c5.696,10.925,11.002,22.088,17.818,32.376   c4.944,7.463,10.651,14.416,15.652,21.842c6.783,10.072,12.299,21.15,14.575,33.017c1.531,7.982,1.48,16.603-2.365,23.794   c-2.531,4.733-6.636,8.615-11.484,11.044c-4.849,2.429-10.416,3.414-15.837,2.936c-8.539-0.753-16.294-4.951-24.332-7.879   c-14.262-5.194-29.676-6.437-44.354-10.356c-6.191-1.653-12.254-3.783-18.529-5.094c-2.768-0.578-5.59-1.001-8.233-1.996   c-2.642-0.996-5.147-2.65-6.497-5.093c-0.95-1.719-1.269-3.731-1.128-5.683c0.142-1.951,0.725-3.85,1.49-5.657   c1.53-3.612,3.793-6.922,4.982-10.656c1.746-5.488,1.028-11.437-0.282-17.04c-1.31-5.603-3.2-11.105-3.782-16.826   c-0.259-2.548-0.253-5.145,0.33-7.641c0.583-2.496,1.77-4.895,3.634-6.685c2.401-2.306,5.763-3.453,9.106-3.773   c3.343-0.32,6.708,0.117,10.031,0.594c3.323,0.478,6.667,0.999,10.022,0.846c3.355-0.153,6.771-1.034,9.399-3.088   c2.599-2.031,4.233-5.056,5.169-8.185c0.937-3.129,1.241-6.401,1.625-9.641c0.384-3.24,0.863-6.51,2.119-9.529   C108.19,352.763,110.312,349.98,113.277,348.509"/>
	
		<linearGradient id="path4792-8_00000083787054792632627600000003716062231332024209_" gradientUnits="userSpaceOnUse" x1="266.9522" y1="7051.6455" x2="292.8498" y2="7002.897" gradientTransform="matrix(1 0 0 -1 -97.5184 7472.4053)">
		<stop offset="0" style="stop-color:#F8C400"/>
		<stop offset="1" style="stop-color:#F8C400;stop-opacity:0"/>
	</linearGradient>
	<path id="path4792-8_1_" style="fill:url(#path4792-8_00000083787054792632627600000003716062231332024209_);" d="M143.704,375.781   c4.492,8.124,7.232,17.445,11.688,25.637c4.099,7.536,8.763,15.294,12.926,22.244c1.854,3.094,6.176,7.85,10.546,15.231   c3.96,6.689,7.96,16.024,10.197,19.158c-1.285-3.669-3.928-13.524-7.081-20.549c-2.946-6.564-6.377-10.31-8.491-13.841   c-4.163-6.95-8.647-13.196-12.926-19.82C154.658,394.705,150.159,384.478,143.704,375.781L143.704,375.781z"/>
	
		<radialGradient id="path29714-8-2_00000126284922896688312490000008267500023833204402_" cx="239.4145" cy="5869.9844" r="29.0337" gradientTransform="matrix(1.3082 0.3505 0.368 -1.3732 -2093.6694 8365.9326)" gradientUnits="userSpaceOnUse">
		<stop offset="0" style="stop-color:#0B0200"/>
		<stop offset="0.5907" style="stop-color:#BB5A00;stop-opacity:0.8"/>
		<stop offset="1" style="stop-color:#FF9200;stop-opacity:0"/>
	</radialGradient>
	
		<path id="path29714-8-2_1_" style="opacity:0.35;fill:url(#path29714-8-2_00000126284922896688312490000008267500023833204402_);enable-background:new    ;" d="   M410.98,375.214c-0.97-1.899-2.735-3.319-4.703-4.141c-1.968-0.822-4.131-1.084-6.264-1.067c-4.265,0.033-8.505,1.144-12.754,0.776   c-3.589-0.311-6.995-1.66-10.496-2.512c-3.615-0.88-7.449-1.223-11.039-0.246c-3.836,1.044-7.221,3.608-9.34,6.972   c-1.869,2.966-2.756,6.468-3.035,9.962c-0.279,3.495,0.022,7.007,0.376,10.495c0.256,2.523,0.54,5.051,1.151,7.512   c0.61,2.461,1.558,4.865,3.044,6.92c2.138,2.958,5.314,5.066,8.737,6.334c5.587,2.069,11.951,1.958,17.462-0.305   c9.753-4.235,18.009-11.83,23.041-21.197c1.802-3.354,3.201-6.927,4.105-10.626c0.359-1.47,0.641-2.969,0.655-4.482   C411.935,378.097,411.668,376.562,410.98,375.214"/>
	
		<radialGradient id="path29714-8-3-0_00000162344234504320040340000003198601606168791940_" cx="4.6088" cy="6704.8022" r="29.0337" gradientTransform="matrix(1.3082 0.2534 0.368 -0.9927 -2093.6694 7034.7241)" gradientUnits="userSpaceOnUse">
		<stop offset="0" style="stop-color:#0B0200"/>
		<stop offset="0.5907" style="stop-color:#BB5A00;stop-opacity:0.8"/>
		<stop offset="1" style="stop-color:#FF9200;stop-opacity:0"/>
	</radialGradient>
	
		<path id="path29714-8-3-0_1_" style="opacity:0.35;fill:url(#path29714-8-3-0_00000162344234504320040340000003198601606168791940_);enable-background:new    ;" d="   M410.98,369.775c-0.97-1.373-2.735-2.4-4.703-2.993c-1.968-0.594-4.131-0.784-6.264-0.772c-4.265,0.024-8.505,0.827-12.754,0.561   c-3.589-0.224-6.995-1.2-10.496-1.816c-3.615-0.636-7.449-0.884-11.039-0.178c-3.836,0.755-7.221,2.609-9.34,5.04   c-1.869,2.144-2.756,4.676-3.035,7.202c-0.279,2.526,0.022,5.066,0.376,7.587c0.256,1.824,0.54,3.652,1.151,5.431   c0.61,1.779,1.558,3.517,3.044,5.003c2.138,2.138,5.314,3.663,8.737,4.579c5.587,1.496,11.951,1.415,17.462-0.221   c9.753-3.061,18.009-8.552,23.041-15.324c1.802-2.425,3.201-5.008,4.105-7.682c0.359-1.063,0.641-2.146,0.655-3.24   C411.934,371.859,411.668,370.749,410.98,369.775"/>
	<path d="M419.39,365.22c-0.76,3.37-2.43,6.47-4.4,9.31c-5.95,8.63-14.76,15.25-24.7,18.58c-6.02,1.97-12.64,2.07-18.71,0.27   c-3.53-1.04-6.95-2.78-9.37-5.55c-2.99-3.44-4.13-8.11-4.49-12.65c-0.49-6.1,0.31-12.36,2.85-17.93c1.02-2.24,2.32-4.36,3.91-6.23   c0.64-0.78,1.34-1.52,2.09-2.2c2.57-2.34,5.7-4.09,9.09-4.86c3.87-0.87,7.92-0.45,11.83,0.22c3.77,0.64,7.5,1.5,11.25,2.2   c3.98,0.75,8.04,1.34,11.78,2.92c1.25,0.53,2.46,1.18,3.58,1.97c0.55,0.37,1.07,0.78,1.56,1.22c1.5,1.36,2.73,3.05,3.43,4.95   C419.99,359.91,419.97,362.65,419.39,365.22z"/>
	<radialGradient id="SVGID_1_" cx="407.9128" cy="366.5666" r="9.8251" gradientUnits="userSpaceOnUse">
		<stop offset="0" style="stop-color:#7D7D7D"/>
		<stop offset="1" style="stop-color:#7D7D7D;stop-opacity:0.3294"/>
	</radialGradient>
	<path style="fill:url(#SVGID_1_);" d="M416.66,361.59c-0.92,1.66-2.32,2.96-3.87,4.04c-3.67,2.57-8.14,3.78-12.55,4.63   c0.96-0.85,1.94-1.73,2.85-2.63c1.13-1.12,2.18-2.34,2.96-3.72c0.78-1.39,1.23-3.02,0.92-4.58c-0.21-1.06-0.75-2.02-1.46-2.85   c-0.7-0.83-1.53-1.54-2.42-2.16c-3.82-2.67-8.32-4.18-12.87-5.17c-2.94-0.64-5.96-1.03-8.94-1.4c-3.11-0.39-6.29-0.73-9.37-0.16   c-1.11,0.2-2.19,0.53-3.23,0.96c-0.2,0.08-0.41,0.16-0.61,0.27c-0.08,0.03-0.16,0.06-0.23,0.11c-0.24,0.1-0.48,0.22-0.71,0.35   c-0.04,0.02-0.08,0.04-0.11,0.06c-0.29,0.15-0.57,0.31-0.85,0.49c-0.29,0.18-0.58,0.37-0.86,0.57c-0.29,0.19-0.56,0.39-0.83,0.61   c0.65-0.78,1.34-1.51,2.09-2.19c2.57-2.34,5.7-4.09,9.09-4.86c3.87-0.87,7.92-0.45,11.83,0.22c3.77,0.64,7.5,1.5,11.25,2.2   c3.98,0.75,8.04,1.34,11.78,2.92c1.25,0.53,2.46,1.18,3.58,1.97c0.14,0.11,0.28,0.23,0.42,0.35c0.21,0.17,0.41,0.36,0.61,0.56   c0.2,0.18,0.38,0.38,0.56,0.58c0.85,0.96,1.53,2.1,1.84,3.34C417.98,357.94,417.59,359.94,416.66,361.59z"/>
	
		<linearGradient id="SVGID_00000180346154605661501360000006421221313859493532_" gradientUnits="userSpaceOnUse" x1="377.1305" y1="356.3025" x2="381.7083" y2="356.4933">
		<stop offset="0" style="stop-color:#7D7D7D"/>
		<stop offset="1" style="stop-color:#7D7D7D;stop-opacity:0.3294"/>
	</linearGradient>
	<path style="fill:url(#SVGID_00000180346154605661501360000006421221313859493532_);" d="M416.66,361.59   c-0.92,1.66-2.32,2.96-3.87,4.04c-3.67,2.57-8.14,3.78-12.55,4.63c0.96-0.85,1.94-1.73,2.85-2.63c1.13-1.12,2.18-2.34,2.96-3.72   c0.78-1.39,1.23-3.02,0.92-4.58c-0.21-1.06-0.75-2.02-1.46-2.85c-0.7-0.83-1.53-1.54-2.42-2.16c-3.82-2.67-8.32-4.18-12.87-5.17   c-2.94-0.64-5.96-1.03-8.94-1.4c-3.11-0.39-6.29-0.73-9.37-0.16c-1.11,0.2-2.19,0.53-3.23,0.96c-0.21,0.08-0.41,0.17-0.61,0.27   c-0.08,0.03-0.16,0.06-0.23,0.11c-0.24,0.1-0.48,0.22-0.71,0.35c-0.04,0.02-0.08,0.04-0.11,0.06c-0.29,0.15-0.57,0.32-0.85,0.49   c-0.29,0.18-0.58,0.37-0.86,0.57c-0.28,0.2-0.56,0.4-0.83,0.62v-0.01c0.65-0.78,1.34-1.51,2.09-2.19c2.57-2.34,5.7-4.09,9.09-4.86   c3.87-0.87,7.92-0.45,11.83,0.22c3.77,0.64,7.5,1.5,11.25,2.2c3.98,0.75,8.04,1.34,11.78,2.92c1.25,0.53,2.46,1.18,3.58,1.97   c0.14,0.11,0.28,0.23,0.42,0.35c0.21,0.17,0.41,0.36,0.61,0.56c0.2,0.18,0.38,0.38,0.56,0.58c0.85,0.96,1.53,2.1,1.84,3.34   C417.98,357.94,417.59,359.94,416.66,361.59z"/>
	
		<radialGradient id="path28795-9-5_00000101074828572204745490000015442252264645118864_" cx="179.1303" cy="6747.2944" r="24.5535" gradientTransform="matrix(0.8152 -0.0343 -0.0296 -1.248 266.7678 8530.9512)" gradientUnits="userSpaceOnUse">
		<stop offset="0" style="stop-color:#FDFDFB"/>
		<stop offset="0.7573" style="stop-color:#FDFDFB"/>
		<stop offset="1" style="stop-color:#D4D4D4"/>
	</radialGradient>
	<path id="path28795-9-5_1_" style="fill:url(#path28795-9-5_00000101074828572204745490000015442252264645118864_);" d="   M208.557,79.217c-3.07,0.167-4.864,0.621-7.11,2.72c-2.246,2.099-2.661,3.754-3.634,6.67c-0.873,2.616-3.237,4.736-3.366,7.489   c-0.158,3.382,0.085,6.821,0.329,10.202c0.401,5.553,0.811,11.212,2.89,16.376c1.04,2.582,2.5,5.016,4.447,7.004   c1.948,1.989,4.398,3.519,7.098,4.196c2.532,0.634,5.236,0.503,7.726-0.279c2.49-0.782,4.764-2.204,6.629-4.029   c2.721-2.663,4.556-6.146,5.607-9.806c1.052-3.659,1.352-7.5,1.297-11.307c-0.068-4.764-0.691-9.546-2.182-14.071   c-0.821-2.491-1.911-4.905-3.279-7.141c-1.117-1.826-3.681-1.864-5.174-3.4c-1.609-1.655-3.573-1.504-5.643-2.525   S210.862,79.091,208.557,79.217"/>
	<g id="g605_1_">
		<path id="path29453-9_1_" d="M201.496,101.988c-0.641,3.871-0.665,7.932,0.666,11.622c0.879,2.437,2.327,4.648,4.088,6.548    c1.153,1.244,2.462,2.375,3.991,3.108c1.53,0.733,3.302,1.045,4.947,0.632c1.519-0.381,2.846-1.359,3.826-2.58    c0.98-1.221,1.633-2.677,2.099-4.171c1.374-4.413,1.153-9.241-0.211-13.657c-0.994-3.218-2.641-6.322-5.216-8.491    c-1.229-1.035-2.668-1.846-4.231-2.218c-1.563-0.371-3.255-0.284-4.718,0.38c-1.624,0.738-2.881,2.142-3.704,3.725    C202.211,98.468,201.788,100.228,201.496,101.988"/>
		
			<linearGradient id="path29465-8_00000012439232035040686260000014567787525172840600_" gradientUnits="userSpaceOnUse" x1="275.8393" y1="7381.0391" x2="285.8936" y2="7363.063" gradientTransform="matrix(1 0 0 -1 -66.9881 7474.1729)">
			<stop offset="0" style="stop-color:#767675;stop-opacity:0"/>
			<stop offset="0.2629" style="stop-color:#767675"/>
			<stop offset="0.5" style="stop-color:#767675"/>
			<stop offset="1" style="stop-color:#767675;stop-opacity:0"/>
		</linearGradient>
		<path id="path29465-8_1_" style="fill:url(#path29465-8_00000012439232035040686260000014567787525172840600_);" d="    M209.68,99.188c0.417,1.092,1.817,1.489,2.585,2.37c0.746,0.856,1.529,1.742,1.939,2.801c0.784,2.027-0.774,5.031,0.862,6.463    c0.513,0.449,1.542,0.459,2.047,0c1.974-1.796,1.536-5.419,0.754-7.971c-0.709-2.316-2.46-4.509-4.618-5.61    c-0.998-0.509-2.5-0.932-3.354-0.207C209.346,97.501,209.423,98.514,209.68,99.188z"/>
	</g>
	
		<radialGradient id="SVGID_00000055709026547930060830000008646773180334006153_" cx="209.2163" cy="83.2904" r="17.514" fx="208.2507" fy="81.9649" gradientUnits="userSpaceOnUse">
		<stop offset="0" style="stop-color:#D4D4D4"/>
		<stop offset="1" style="stop-color:#7D7D7D"/>
	</radialGradient>
	<path style="fill:url(#SVGID_00000055709026547930060830000008646773180334006153_);" d="M225.01,87.25   c-2.35-0.56-4.71-1-7.11-1.22c-5.36-0.51-10.99,0.13-15.62,2.89c-3.06,1.82-5.5,4.43-7.82,7.16c0.12-2.75,0.51-5.46,1.38-8.07   c0.98-2.91,2.56-5.66,4.8-7.76c2.25-2.1,5.19-3.52,8.26-3.68c2.3-0.13,4.61,0.45,6.68,1.47c2.07,1.02,3.91,2.47,5.52,4.13   C222.6,83.71,223.9,85.42,225.01,87.25z"/>
	
		<linearGradient id="path28795-9-2-2_00000031905833384004052890000005913866513987216036_" gradientUnits="userSpaceOnUse" x1="366.1912" y1="7411.2637" x2="389.2855" y2="7389.0225" gradientTransform="matrix(1 0 0 -1 -156.9881 7474.1729)">
		<stop offset="0" style="stop-color:#646464;stop-opacity:0"/>
		<stop offset="0.3063" style="stop-color:#646464;stop-opacity:0.5825"/>
		<stop offset="0.47" style="stop-color:#646464"/>
		<stop offset="0.7283" style="stop-color:#646464;stop-opacity:0.2573"/>
		<stop offset="1" style="stop-color:#646464;stop-opacity:0"/>
	</linearGradient>
	<path id="path28795-9-2-2_1_" style="fill:url(#path28795-9-2-2_00000031905833384004052890000005913866513987216036_);" d="   M221.529,73.147c4.315,4.042,7.523,9.031,9.695,14.321c-0.949-5.834-2.453-10.52-6.248-14.321   c-2.329-2.182-4.975-4.098-7.971-5.444c-2.622-1.178-5.539-1.909-7.206-1.94c-1.667-0.03-2.072,0.007-2.415,0.023   c-0.343,0.016-0.616,0.028,0.469,0.151s3.505,0.778,6.103,1.945C216.555,69.049,219.201,70.965,221.529,73.147z"/>
	
		<radialGradient id="path28795-3_00000046335101285405434880000008575519391708294845_" cx="547.2021" cy="6736.2852" r="23.9885" gradientTransform="matrix(1.0858 -0.0343 -0.0394 -1.248 -52.2903 8530.9512)" gradientUnits="userSpaceOnUse">
		<stop offset="0" style="stop-color:#FDFDFB"/>
		<stop offset="0.7573" style="stop-color:#FDFDFB"/>
		<stop offset="1" style="stop-color:#D4D4D4"/>
	</radialGradient>
	<path id="path28795-3_1_" style="fill:url(#path28795-3_00000046335101285405434880000008575519391708294845_);" d="   M265.475,80.993c-4.491,3.085-12.664,7.983-12.664,7.983c-0.162,0.37-0.243,0.604-0.366,0.948   c-2.475,6.897-1.527,14.617,0.862,21.544c2.447,7.096,6.539,13.859,12.718,18.118c3.09,2.13,6.667,3.59,10.393,4.031   c3.727,0.441,7.599-0.164,10.928-1.897c4.056-2.113,7.149-5.813,9.069-9.963c1.921-4.15,2.738-8.738,2.995-13.304   c0.23-4.08,0.018-8.208-0.789-12.208c-0.343-1.703-2.622-2.97-3.193-4.614c-2.077-5.979-6.179-6.97-11.492-10.41   c-2.657-1.72-4.811-2.738-7.946-3.171c-3.135-0.434-3.602-0.353-6.552,0.793C267.758,79.494,266.962,79.972,265.475,80.993"/>
	<g id="g613_1_">
		<path id="path28879-6_1_" d="M274.267,91.035c-1.802,0.129-3.558,0.744-5.087,1.707s-2.832,2.267-3.855,3.756    c-2.047,2.977-2.945,6.63-3.09,10.24c-0.109,2.71,0.191,5.455,1.09,8.014c0.899,2.559,2.414,4.927,4.503,6.657    c2.137,1.77,4.854,2.833,7.626,2.966c2.772,0.133,5.583-0.666,7.861-2.252c1.815-1.263,3.278-3.002,4.32-4.952    c1.042-1.95,1.67-4.108,1.957-6.3c0.507-3.872-0.066-7.916-1.856-11.387c-1.79-3.471-4.827-6.33-8.491-7.68    C277.658,91.219,275.955,90.914,274.267,91.035"/>
		<path id="path28891-5_1_" style="fill:#0C0C0B;" d="M278.567,102.85c-1.492,0.589-3.855,0.218-4.509,1.683    c-0.388,0.868,0.16,2.297,1.04,2.655c1.779,0.725,4.536-0.588,5.255-2.37c0.312-0.774-0.161-2.001-0.93-2.324    C279.138,102.375,278.854,102.737,278.567,102.85z"/>
		
			<linearGradient id="path28887-6_00000159458249556014711270000000081187433890935471_" gradientUnits="userSpaceOnUse" x1="352.7401" y1="7379.6782" x2="364.3178" y2="7365.9678" gradientTransform="matrix(1 0 0 -1 -76.9881 7474.1729)">
			<stop offset="0" style="stop-color:#949494;stop-opacity:0.3922"/>
			<stop offset="0.5" style="stop-color:#949494"/>
			<stop offset="1" style="stop-color:#949494;stop-opacity:0.3922"/>
		</linearGradient>
		<path id="path28887-6_1_" style="fill:url(#path28887-6_00000159458249556014711270000000081187433890935471_);" d="    M285.407,106.728c2.001-2.001-1.424-7.307-4.093-9.479c-1.934-1.573-7.567-3.22-7.325-1.508s2.775,3.906,4.472,5.58    C280.55,103.381,284.457,107.679,285.407,106.728z"/>
	</g>
	
		<radialGradient id="SVGID_00000072244494957687873290000006078701353031706509_" cx="279.6083" cy="86.0924" r="21.7463" gradientUnits="userSpaceOnUse">
		<stop offset="0" style="stop-color:#D4D4D4"/>
		<stop offset="1" style="stop-color:#7D7D7D"/>
	</radialGradient>
	<path style="fill:url(#SVGID_00000072244494957687873290000006078701353031706509_);" d="M298.64,96.31   c-2.56-2.06-5.08-4.19-7.85-5.96c-9.27-5.88-21.18-7.16-31.67-3.92c-2.18,0.67-4.29,1.52-6.31,2.55   c2.06-5.05,5.89-9.31,10.41-12.41c1.48-1.02,3.06-1.94,4.74-2.59c2.95-1.14,6.2-1.47,9.33-1.04c3.14,0.44,6.15,1.62,8.81,3.34   c5.31,3.44,9.08,8.96,11.16,14.94C297.84,92.88,298.29,94.58,298.64,96.31z"/>
	
		<linearGradient id="path28795-92-2_00000149367281792038322940000015499058026254199741_" gradientUnits="userSpaceOnUse" x1="436.4845" y1="7412.3013" x2="461.011" y2="7389.146" gradientTransform="matrix(1 0 0 -1 -156.9881 7474.1729)">
		<stop offset="0" style="stop-color:#646464;stop-opacity:0"/>
		<stop offset="0.3063" style="stop-color:#646464;stop-opacity:0.5825"/>
		<stop offset="0.47" style="stop-color:#646464"/>
		<stop offset="0.7283" style="stop-color:#646464;stop-opacity:0.2573"/>
		<stop offset="1" style="stop-color:#646464;stop-opacity:0"/>
	</linearGradient>
	<path id="path28795-92-2_1_" style="fill:url(#path28795-92-2_00000149367281792038322940000015499058026254199741_);" d="   M279.86,62.37c-0.822,1.034-1.565,2.158-2.154,3.393c3.699,0.797,7.237,2.319,10.395,4.417c6.11,4.058,10.75,9.99,14.004,16.589   c0.76-0.841,1.451-1.744,2.047-2.747c-3.27-6.873-8.004-13.09-14.327-17.289C286.786,64.715,283.404,63.193,279.86,62.37z"/>
	
		<radialGradient id="path28849-2_00000110470375853988185940000001577297338200338098_" cx="2719.8779" cy="8298.458" r="26.5115" gradientTransform="matrix(0.6978 -0.5072 -0.4603 -0.6334 2157.3306 6755.9976)" gradientUnits="userSpaceOnUse">
		<stop offset="0" style="stop-color:#000000"/>
		<stop offset="0.7345" style="stop-color:#000000"/>
		<stop offset="1" style="stop-color:#5C5C5C"/>
	</radialGradient>
	<path id="path28849-2_1_" style="fill:url(#path28849-2_00000110470375853988185940000001577297338200338098_);" d="   M223.319,117.069c3.046-3.424,5.13-7.602,8.056-11.128c1.463-1.763,3.151-3.37,5.139-4.51c1.988-1.14,4.295-1.794,6.578-1.597   c2.541,0.22,4.92,1.486,6.78,3.231c1.861,1.745,3.24,3.947,4.341,6.248c1.054,2.203,1.892,4.551,3.411,6.463   c1.621,2.041,3.894,3.434,5.948,5.038c1.027,0.802,2.012,1.67,2.824,2.69c0.812,1.019,1.447,2.199,1.708,3.476   c0.265,1.296,0.133,2.663-0.319,3.906c-0.452,1.243-1.218,2.364-2.171,3.282c-1.906,1.836-4.505,2.826-7.125,3.197   c-5.24,0.741-10.539-0.82-15.829-0.675c-5.355,0.147-10.585,2.04-15.938,1.844c-2.677-0.098-5.391-0.752-7.591-2.28   c-1.1-0.764-2.058-1.742-2.75-2.888c-0.693-1.146-1.115-2.463-1.16-3.801c-0.043-1.277,0.255-2.552,0.765-3.724   c0.51-1.171,1.228-2.244,2.037-3.232C219.641,120.631,221.62,118.979,223.319,117.069"/>
	
		<radialGradient id="path28461-2_00000129195289667425727630000001599176292081801602_" cx="1765.5215" cy="8881.0381" r="53.6211" gradientTransform="matrix(0.9362 -0.3864 -0.2713 -0.6574 1016.38 6661.7046)" gradientUnits="userSpaceOnUse">
		<stop offset="0" style="stop-color:#E59400"/>
		<stop offset="0.7514" style="stop-color:#EB9C00"/>
		<stop offset="0.8658" style="stop-color:#C87F00"/>
		<stop offset="1" style="stop-color:#A46100"/>
	</radialGradient>
	<path id="path28461-2_1_" style="fill:url(#path28461-2_00000129195289667425727630000001599176292081801602_);" d="   M194.279,150.108c0.106,0.509,0.297,1,0.564,1.447c0.458,0.768,1.127,1.39,1.85,1.916c0.723,0.526,1.504,0.964,2.261,1.44   c4.022,2.528,7.3,6.082,10.211,9.836c3.906,5.036,7.363,10.625,12.58,14.286c3.684,2.585,8.093,4.059,12.571,4.509   c5.259,0.528,10.582-0.32,15.652-1.813c4.699-1.383,9.243-3.326,13.413-5.897c7.926-4.888,14.545-12.052,23.285-15.265   c1.908-0.701,3.894-1.203,5.733-2.069c1.839-0.865,3.57-2.161,4.449-3.995c0.845-1.762,0.812-3.796,1.087-5.731   c0.294-2.07,0.954-4.071,1.317-6.13c0.362-2.059,0.405-4.261-0.485-6.153c-0.737-1.566-2.077-2.806-3.619-3.593   s-3.277-1.145-5.006-1.23c-3.458-0.17-6.873,0.716-10.321,1.03c-4.567,0.417-9.165-0.169-13.749-0.033   c-5.702,0.17-11.321,1.456-17.018,1.732c-6.5,0.315-12.986-0.687-19.489-0.95c-2.816-0.114-5.653-0.088-8.431,0.388   c-2.778,0.477-5.507,1.42-7.826,3.021c-2.26,1.561-4.06,3.689-6.136,5.488c-1.038,0.9-2.154,1.722-3.389,2.322   c-1.235,0.6-2.598,0.972-3.971,0.943c-0.706-0.016-1.432-0.133-2.105,0.081c-0.42,0.134-0.794,0.391-1.109,0.7   c-0.316,0.308-0.577,0.667-0.824,1.033C195.201,148.273,194.7,149.173,194.279,150.108"/>
	<path id="path28487-2_1_" style="fill:#E6B300;" d="M219.796,157.116c-0.666,2.751-0.262,5.746,1.109,8.222   c1.371,2.476,3.696,4.408,6.381,5.303c3.409,1.136,7.25,0.58,10.435-1.083c1.847-0.964,3.535-2.32,4.601-4.109   c0.533-0.895,0.903-1.891,1.042-2.923c0.139-1.032,0.043-2.1-0.319-3.077c-0.396-1.071-1.104-2.014-1.975-2.751   c-0.872-0.737-1.904-1.272-2.988-1.63c-2.167-0.717-4.5-0.731-6.78-0.621c-3.456,0.166-6.899,0.6-10.288,1.298"/>
	<path id="path27476-7-8_1_" style="fill:#694200;" d="M208.61,135.714c-2.308,1.364-4.53,2.867-6.717,4.418   c-1.132,0.802-2.299,1.67-2.896,2.922c-0.423,0.888-0.52,1.894-0.534,2.877c-0.013,0.983,0.05,1.972-0.08,2.946   c-0.088,0.666-0.266,1.321-0.296,1.991c-0.015,0.335,0.008,0.675,0.097,0.999c0.088,0.324,0.245,0.633,0.475,0.877   c0.297,0.316,0.703,0.51,1.118,0.637c0.415,0.126,0.846,0.192,1.268,0.291c2.025,0.476,3.786,1.718,5.333,3.109   c1.546,1.391,2.935,2.956,4.548,4.268c4.373,3.558,10.152,5.03,15.789,5.123c5.637,0.093,11.21-1.087,16.71-2.326   c4.32-0.973,8.643-1.99,12.798-3.522c6.382-2.353,12.307-5.915,17.439-10.379c2.327-2.024,4.511-4.246,7.122-5.886   c2.311-1.451,4.899-2.409,7.25-3.796c0.21-0.124,0.419-0.252,0.607-0.408c0.188-0.156,0.355-0.341,0.463-0.56   c0.188-0.377,0.189-0.829,0.067-1.233c-0.121-0.404-0.356-0.765-0.62-1.093c-0.293-0.363-0.626-0.692-0.981-0.995   c-2.455-2.101-5.785-2.865-9.007-3.121c-3.221-0.255-6.482-0.075-9.669-0.607c-2.997-0.501-5.848-1.618-8.741-2.546   c-3.037-0.974-6.141-1.745-9.288-2.259c-7.402-1.208-15.024-0.976-22.367,0.553C221.504,129.449,214.759,132.079,208.61,135.714"/>
	
		<linearGradient id="path27476-4_00000027598229784886873440000011133010414226076811_" gradientUnits="userSpaceOnUse" x1="363.1674" y1="7336.189" x2="460.5117" y2="7336.9507" gradientTransform="matrix(1 0 0 -1 -166.9881 7474.1729)">
		<stop offset="0" style="stop-color:#BE7900"/>
		<stop offset="0.1197" style="stop-color:#EA9E00"/>
		<stop offset="0.2551" style="stop-color:#FFB800"/>
		<stop offset="0.3919" style="stop-color:#F7C800"/>
		<stop offset="0.5274" style="stop-color:#FFD815"/>
		<stop offset="0.7691" style="stop-color:#FFD800"/>
		<stop offset="1" style="stop-color:#FFCD04"/>
	</linearGradient>
	<path id="path27476-4_1_" style="fill:url(#path27476-4_00000027598229784886873440000011133010414226076811_);" d="   M207.874,127.914c-3.325,2.238-6.319,4.969-8.852,8.075c-1.449,1.777-2.764,3.707-3.494,5.88c-0.574,1.709-0.77,3.519-1.131,5.285   c-0.135,0.662-0.295,1.326-0.293,2.001c0.001,0.338,0.044,0.677,0.149,0.998s0.273,0.624,0.507,0.868   c0.387,0.403,0.931,0.622,1.479,0.735c0.548,0.113,1.11,0.129,1.665,0.193c2.507,0.285,4.816,1.503,6.895,2.934   c2.078,1.431,3.994,3.094,6.126,4.443c4.712,2.98,10.332,4.306,15.903,4.521c5.571,0.215,11.129-0.632,16.597-1.723   c4.345-0.868,8.676-1.897,12.798-3.522c6.312-2.489,12.002-6.32,17.439-10.379c2.47-1.844,4.905-3.746,7.122-5.886   c0.753-0.727,1.481-1.481,2.288-2.147c0.807-0.665,1.703-1.244,2.699-1.564c1.518-0.488,3.164-0.348,4.737-0.085   c1.185,0.198,2.372,0.464,3.572,0.416c0.6-0.024,1.201-0.128,1.758-0.351c0.557-0.223,1.071-0.569,1.453-1.032   c0.502-0.609,0.758-1.404,0.761-2.193c0.003-0.789-0.239-1.57-0.639-2.25c-0.801-1.36-2.186-2.28-3.628-2.921   c-1.975-0.878-4.113-1.312-6.214-1.82c-6.455-1.559-12.728-3.862-18.676-6.815c-2.957-1.468-5.832-3.095-8.741-4.654   c-2.991-1.603-6.04-3.144-9.288-4.128c-7.262-2.201-15.199-1.479-22.367,1.01C220.535,116.566,213.335,121.493,207.874,127.914   L207.874,127.914"/>
	<path id="path28357-7_1_" style="fill:#FFDA37;" d="M258.888,129.509c-0.39-0.493-0.95-0.841-1.553-1.019   c-0.604-0.178-1.249-0.19-1.869-0.084c-1.24,0.212-2.352,0.88-3.388,1.593c-2.945,2.028-5.548,4.53-7.82,7.29   c-3.008,3.654-5.489,7.879-6.321,12.538c-0.14,0.785-0.233,1.588-0.135,2.379s0.401,1.577,0.963,2.143   c0.493,0.497,1.165,0.8,1.858,0.9c0.693,0.1,1.406,0.003,2.07-0.221c1.327-0.448,2.428-1.378,3.472-2.312   c5.75-5.146,10.949-11.32,13.029-18.75c0.209-0.746,0.386-1.509,0.381-2.283C259.57,130.91,259.369,130.116,258.888,129.509"/>
	<g id="g681_1_">
		
			<radialGradient id="path28396-7_00000021110042016503881880000010774273741375577497_" cx="206.2828" cy="9715.6602" r="5.5671" gradientTransform="matrix(1 0 0 -0.5833 43.0119 5786.8101)" gradientUnits="userSpaceOnUse">
			<stop offset="0" style="stop-color:#3D2400"/>
			<stop offset="0.5547" style="stop-color:#7E5100"/>
			<stop offset="1" style="stop-color:#B78C00"/>
		</radialGradient>
		
			<path id="path28396-7_1_" style="opacity:0.8;fill:url(#path28396-7_00000021110042016503881880000010774273741375577497_);enable-background:new    ;" d="    M245.122,118.841c0.399,1.28,2.461,1.067,3.652,1.681c1.045,0.538,1.886,1.719,3.062,1.753c1.122,0.032,2.868-0.389,3.014-1.501    c0.193-1.47-1.954-2.404-3.336-2.943c-1.778-0.693-4.055-1.045-5.723-0.118C245.409,117.925,244.992,118.423,245.122,118.841    L245.122,118.841z"/>
		
			<radialGradient id="path28398-7_00000003789515303453966110000007389915783804202413_" cx="181.2113" cy="7123.4854" r="2.6457" gradientTransform="matrix(1 0 0 -1.0751 43.0119 7778.3525)" gradientUnits="userSpaceOnUse">
			<stop offset="0" style="stop-color:#3D2400"/>
			<stop offset="0.5547" style="stop-color:#7E5100"/>
			<stop offset="1" style="stop-color:#B78C00"/>
		</radialGradient>
		
			<path id="path28398-7_1_" style="opacity:0.8;fill:url(#path28398-7_00000003789515303453966110000007389915783804202413_);enable-background:new    ;" d="    M225.433,118.117c-1.531-0.497-4.063,2.202-3.237,3.583c0.227,0.379,0.922,0.86,1.39,0.603c0.705-0.388,1.282-1.774,2.047-2.318    C226.142,119.622,226.028,118.311,225.433,118.117z"/>
	</g>
	
		<linearGradient id="path28570-8_00000181786659868532993310000006766355803283529106_" gradientUnits="userSpaceOnUse" x1="148.1115" y1="6212.6992" x2="148.8655" y2="6207.9595" gradientTransform="matrix(1.0956 0 0.1702 -1.5181 -925.9478 9566.6523)">
		<stop offset="0" style="stop-color:#FFCE00"/>
		<stop offset="1" style="stop-color:#EA9B00"/>
	</linearGradient>
	<path id="path28570-8_1_" style="fill:url(#path28570-8_00000181786659868532993310000006766355803283529106_);" d="   M298.529,138.297c-0.377,3.364-2.888,6.092-5.608,6.092c0,0,0,0,0,0c-2.72,0-4.619-2.727-4.242-6.092   c0.377-3.364,2.888-6.092,5.608-6.092C297.006,132.205,298.906,134.933,298.529,138.297L298.529,138.297z"/>
</g>















</svg>
