<svg id="Capa_1" enable-background="new 0 0 512 512" height="512" viewBox="0 0 512 512" width="512" xmlns="http://www.w3.org/2000/svg"><ellipse cx="256" cy="256" fill="#a3defe" rx="232.026" ry="232.026" transform="matrix(.707 -.707 .707 .707 -106.039 256)"/><path d="m176.479 37.962c-88.978 32.46-152.505 117.829-152.505 218.038 0 128.145 103.882 232.026 232.026 232.026 58.984 0 112.817-22.022 153.755-58.277-273.688-30.247-288.051-290.256-233.276-391.787z" fill="#7acefa"/><path d="m446.496 388.475h-104.583c23.323-44.658 37.726-92.465 37.726-132.475s-14.403-87.817-37.726-132.475h104.583c-3.591-5.154-7.373-10.163-11.36-15h-101.463c-18.347-31.805-41.076-61.278-66.087-84.263-3.839-.189-7.701-.289-11.586-.289-3.886 0-7.748.1-11.587.289-25.011 22.984-47.739 52.459-66.086 84.263h-101.463c-3.987 4.837-7.769 9.846-11.36 15h104.583c-23.322 44.658-37.725 92.465-37.725 132.475s14.403 87.817 37.725 132.475h-104.583c3.591 5.154 7.373 10.163 11.36 15h101.463c18.347 31.805 41.076 61.279 66.086 84.263 3.839.189 7.701.289 11.587.289s7.748-.1 11.586-.289c25.011-22.985 47.74-52.458 66.087-84.263h101.463c3.986-4.837 7.769-9.847 11.36-15zm-190.496-354.505c22.006 19.906 42.755 45.627 60.289 74.556h-120.578c17.534-28.929 38.282-54.651 60.289-74.556zm0 444.06c-22.007-19.906-42.755-45.627-60.289-74.556h120.579c-17.535 28.929-38.284 54.651-60.29 74.556zm76.042-103.161c-2.285 4.592-4.66 9.128-7.11 13.605h-137.864c-2.45-4.477-4.825-9.013-7.11-13.605-21.02-42.249-32.597-84.465-32.597-118.869s11.576-76.62 32.597-118.869c2.285-4.592 4.66-9.128 7.11-13.606h137.864c2.45 4.477 4.825 9.013 7.11 13.606 21.021 42.249 32.597 84.465 32.597 118.869s-11.576 76.62-32.597 118.869z" fill="#7c899a"/><path d="m482.736 192.729h-453.472c-16.162 0-29.264 13.102-29.264 29.264v68.013c0 16.162 13.102 29.264 29.264 29.264h453.472c16.162 0 29.264-13.102 29.264-29.264v-68.013c0-16.162-13.102-29.264-29.264-29.264z" fill="#f7ef87"/><path d="m29.264 192.729c-16.162 0-29.264 13.102-29.264 29.264v68.013c0 16.162 13.102 29.264 29.264 29.264h246.413c-31.075-20.598-44.193-77.2-31.248-126.541z" fill="#efd176"/><g fill="#4e5660"><path d="m277.309 292.772c-3.153 0-5.97-1.972-7.048-4.935l-14.261-39.181-14.261 39.182c-1.079 2.963-3.895 4.935-7.048 4.935s-5.969-1.972-7.048-4.935l-21.309-58.545c-1.417-3.893.59-8.196 4.483-9.613 3.892-1.416 8.195.591 9.613 4.482l14.261 39.182 14.261-39.182c1.079-2.963 3.895-4.935 7.048-4.935s5.97 1.972 7.048 4.935l14.261 39.182 14.261-39.182c1.416-3.892 5.717-5.897 9.613-4.482 3.892 1.417 5.899 5.721 4.482 9.613l-21.309 58.545c-1.078 2.963-3.894 4.934-7.047 4.934z"/><path d="m162.701 292.772c-3.153 0-5.969-1.972-7.048-4.935l-14.261-39.182-14.261 39.182c-1.079 2.963-3.895 4.935-7.048 4.935s-5.969-1.972-7.048-4.935l-21.308-58.545c-1.417-3.893.59-8.196 4.483-9.613 3.891-1.416 8.195.591 9.613 4.482l14.261 39.182 14.261-39.182c1.079-2.963 3.895-4.935 7.048-4.935s5.969 1.972 7.048 4.935l14.261 39.182 14.261-39.182c1.416-3.893 5.721-5.896 9.613-4.482 3.893 1.417 5.899 5.721 4.483 9.613l-21.309 58.545c-1.08 2.964-3.896 4.935-7.049 4.935z"/><path d="m391.916 292.772c-3.153 0-5.97-1.972-7.048-4.935l-14.261-39.182-14.261 39.182c-1.078 2.963-3.895 4.935-7.048 4.935s-5.97-1.972-7.048-4.935l-21.309-58.545c-1.417-3.893.591-8.196 4.482-9.613 3.893-1.414 8.197.591 9.613 4.482l14.261 39.182 14.261-39.182c1.078-2.963 3.895-4.935 7.048-4.935s5.97 1.972 7.048 4.935l14.261 39.182 14.261-39.182c1.416-3.892 5.716-5.897 9.613-4.482 3.892 1.417 5.9 5.721 4.482 9.613l-21.309 58.545c-1.076 2.964-3.893 4.935-7.046 4.935z"/></g></svg>