<svg xmlns="http://www.w3.org/2000/svg" version="1.1" xmlns:xlink="http://www.w3.org/1999/xlink" xmlns:svgjs="http://svgjs.com/svgjs" width="300" height="300" preserveAspectRatio="none" viewBox="0 0 300 300"><g mask="url(&quot;#SvgjsMask1113&quot;)" fill="none"><rect width="300" height="300" x="0" y="0" fill="#0e2a47"></rect><g mask="url(&quot;#SvgjsMask1114&quot;)"><path d="M230 90L150 10L10 10" stroke-width="3.33" stroke="rgba(162, 210, 255, 1)"></path><path d="M225 90 a5 5 0 1 0 10 0 a5 5 0 1 0 -10 0zM5 10 a5 5 0 1 0 10 0 a5 5 0 1 0 -10 0z" fill="rgba(162, 210, 255, 1)"></path><path d="M70 270L70 70L110 30L150 30L230 110L230 130" stroke-width="3.33" stroke="rgba(162, 210, 255, 1)"></path><path d="M65 270 a5 5 0 1 0 10 0 a5 5 0 1 0 -10 0zM225 130 a5 5 0 1 0 10 0 a5 5 0 1 0 -10 0z" fill="rgba(162, 210, 255, 1)"></path><path d="M290 90L250 90L170 10" stroke-width="3.33" stroke="rgba(162, 210, 255, 1)"></path><path d="M285 90 a5 5 0 1 0 10 0 a5 5 0 1 0 -10 0zM165 10 a5 5 0 1 0 10 0 a5 5 0 1 0 -10 0z" fill="rgba(162, 210, 255, 1)"></path><path d="M10 30L50 70L50 90L10 130L10 290" stroke-width="3.33" stroke="rgba(162, 210, 255, 1)"></path><path d="M5 30 a5 5 0 1 0 10 0 a5 5 0 1 0 -10 0zM5 290 a5 5 0 1 0 10 0 a5 5 0 1 0 -10 0z" fill="rgba(162, 210, 255, 1)"></path><path d="M230 10L230 50L250 70L290 70" stroke-width="3.33" stroke="rgba(162, 210, 255, 1)"></path><path d="M225 10 a5 5 0 1 0 10 0 a5 5 0 1 0 -10 0zM285 70 a5 5 0 1 0 10 0 a5 5 0 1 0 -10 0z" fill="rgba(162, 210, 255, 1)"></path><path d="M90 70L230 210L290 210" stroke-width="3.33" stroke="rgba(162, 210, 255, 1)"></path><path d="M85 70 a5 5 0 1 0 10 0 a5 5 0 1 0 -10 0zM285 210 a5 5 0 1 0 10 0 a5 5 0 1 0 -10 0z" fill="rgba(162, 210, 255, 1)"></path><path d="M230 270L230 230L90 90" stroke-width="3.33" stroke="rgba(162, 210, 255, 1)"></path><path d="M225 270 a5 5 0 1 0 10 0 a5 5 0 1 0 -10 0zM85 90 a5 5 0 1 0 10 0 a5 5 0 1 0 -10 0z" fill="rgba(162, 210, 255, 1)"></path><path d="M110 130L210 230L210 290" stroke-width="3.33" stroke="rgba(162, 210, 255, 1)"></path><path d="M105 130 a5 5 0 1 0 10 0 a5 5 0 1 0 -10 0zM205 290 a5 5 0 1 0 10 0 a5 5 0 1 0 -10 0z" fill="rgba(162, 210, 255, 1)"></path><path d="M190 250L90 150L90 110" stroke-width="3.33" stroke="rgba(162, 210, 255, 1)"></path><path d="M185 250 a5 5 0 1 0 10 0 a5 5 0 1 0 -10 0zM85 110 a5 5 0 1 0 10 0 a5 5 0 1 0 -10 0z" fill="rgba(162, 210, 255, 1)"></path><path d="M290 110L270 130L270 190" stroke-width="3.33" stroke="rgba(162, 210, 255, 1)"></path><path d="M285 110 a5 5 0 1 0 10 0 a5 5 0 1 0 -10 0zM265 190 a5 5 0 1 0 10 0 a5 5 0 1 0 -10 0z" fill="rgba(162, 210, 255, 1)"></path><path d="M50 230L30 210L30 130L50 110" stroke-width="3.33" stroke="rgba(162, 210, 255, 1)"></path><path d="M45 230 a5 5 0 1 0 10 0 a5 5 0 1 0 -10 0zM45 110 a5 5 0 1 0 10 0 a5 5 0 1 0 -10 0z" fill="rgba(162, 210, 255, 1)"></path><path d="M110 50L250 190" stroke-width="3.33" stroke="rgba(162, 210, 255, 1)"></path><path d="M105 50 a5 5 0 1 0 10 0 a5 5 0 1 0 -10 0zM245 190 a5 5 0 1 0 10 0 a5 5 0 1 0 -10 0z" fill="rgba(162, 210, 255, 1)"></path><path d="M150 250L90 190L90 170" stroke-width="3.33" stroke="rgba(162, 210, 255, 1)"></path><path d="M145 250 a5 5 0 1 0 10 0 a5 5 0 1 0 -10 0zM85 170 a5 5 0 1 0 10 0 a5 5 0 1 0 -10 0z" fill="rgba(162, 210, 255, 1)"></path><path d="M130 250L170 290L190 290" stroke-width="3.33" stroke="rgba(162, 210, 255, 1)"></path><path d="M125 250 a5 5 0 1 0 10 0 a5 5 0 1 0 -10 0zM185 290 a5 5 0 1 0 10 0 a5 5 0 1 0 -10 0z" fill="rgba(162, 210, 255, 1)"></path><path d="M90 270L70 290L30 290" stroke-width="3.33" stroke="rgba(162, 210, 255, 1)"></path><path d="M85 270 a5 5 0 1 0 10 0 a5 5 0 1 0 -10 0zM25 290 a5 5 0 1 0 10 0 a5 5 0 1 0 -10 0z" fill="rgba(162, 210, 255, 1)"></path><path d="M250 230L290 230" stroke-width="3.33" stroke="rgba(162, 210, 255, 1)"></path><path d="M245 230 a5 5 0 1 0 10 0 a5 5 0 1 0 -10 0zM285 230 a5 5 0 1 0 10 0 a5 5 0 1 0 -10 0z" fill="rgba(162, 210, 255, 1)"></path><path d="M270 290L250 270L250 250" stroke-width="3.33" stroke="rgba(162, 210, 255, 1)"></path><path d="M265 290 a5 5 0 1 0 10 0 a5 5 0 1 0 -10 0zM245 250 a5 5 0 1 0 10 0 a5 5 0 1 0 -10 0z" fill="rgba(162, 210, 255, 1)"></path><path d="M270 250L270 270L290 290" stroke-width="3.33" stroke="rgba(162, 210, 255, 1)"></path><path d="M265 250 a5 5 0 1 0 10 0 a5 5 0 1 0 -10 0zM285 290 a5 5 0 1 0 10 0 a5 5 0 1 0 -10 0z" fill="rgba(162, 210, 255, 1)"></path><path d="M70 30L30 30" stroke-width="3.33" stroke="rgba(162, 210, 255, 1)"></path><path d="M65 30 a5 5 0 1 0 10 0 a5 5 0 1 0 -10 0zM25 30 a5 5 0 1 0 10 0 a5 5 0 1 0 -10 0z" fill="rgba(162, 210, 255, 1)"></path><path d="M50 270L30 250L30 230" stroke-width="3.33" stroke="rgba(162, 210, 255, 1)"></path><path d="M45 270 a5 5 0 1 0 10 0 a5 5 0 1 0 -10 0zM25 230 a5 5 0 1 0 10 0 a5 5 0 1 0 -10 0z" fill="rgba(162, 210, 255, 1)"></path><path d="M250 30L270 50L290 50" stroke-width="3.33" stroke="rgba(162, 210, 255, 1)"></path><path d="M245 30 a5 5 0 1 0 10 0 a5 5 0 1 0 -10 0zM285 50 a5 5 0 1 0 10 0 a5 5 0 1 0 -10 0z" fill="rgba(162, 210, 255, 1)"></path><path d="M90 230L110 250L110 270" stroke-width="3.33" stroke="rgba(162, 210, 255, 1)"></path><path d="M85 230 a5 5 0 1 0 10 0 a5 5 0 1 0 -10 0zM105 270 a5 5 0 1 0 10 0 a5 5 0 1 0 -10 0z" fill="rgba(162, 210, 255, 1)"></path><path d="M130 50L150 50L170 70" stroke-width="3.33" stroke="rgba(162, 210, 255, 1)"></path><path d="M125 50 a5 5 0 1 0 10 0 a5 5 0 1 0 -10 0zM165 70 a5 5 0 1 0 10 0 a5 5 0 1 0 -10 0z" fill="rgba(162, 210, 255, 1)"></path><path d="M290 150L290 190" stroke-width="3.33" stroke="rgba(162, 210, 255, 1)"></path><path d="M285 150 a5 5 0 1 0 10 0 a5 5 0 1 0 -10 0zM285 190 a5 5 0 1 0 10 0 a5 5 0 1 0 -10 0z" fill="rgba(162, 210, 255, 1)"></path></g></g><defs><mask id="SvgjsMask1113"><rect width="300" height="300" fill="#ffffff"></rect></mask><mask id="SvgjsMask1114"><rect width="300" height="300" fill="white"></rect><path d="M227.5 90 a2.5 2.5 0 1 0 5 0 a2.5 2.5 0 1 0 -5 0zM7.5 10 a2.5 2.5 0 1 0 5 0 a2.5 2.5 0 1 0 -5 0z" fill="black"></path><path d="M67.5 270 a2.5 2.5 0 1 0 5 0 a2.5 2.5 0 1 0 -5 0zM227.5 130 a2.5 2.5 0 1 0 5 0 a2.5 2.5 0 1 0 -5 0z" fill="black"></path><path d="M287.5 90 a2.5 2.5 0 1 0 5 0 a2.5 2.5 0 1 0 -5 0zM167.5 10 a2.5 2.5 0 1 0 5 0 a2.5 2.5 0 1 0 -5 0z" fill="black"></path><path d="M7.5 30 a2.5 2.5 0 1 0 5 0 a2.5 2.5 0 1 0 -5 0zM7.5 290 a2.5 2.5 0 1 0 5 0 a2.5 2.5 0 1 0 -5 0z" fill="black"></path><path d="M227.5 10 a2.5 2.5 0 1 0 5 0 a2.5 2.5 0 1 0 -5 0zM287.5 70 a2.5 2.5 0 1 0 5 0 a2.5 2.5 0 1 0 -5 0z" fill="black"></path><path d="M87.5 70 a2.5 2.5 0 1 0 5 0 a2.5 2.5 0 1 0 -5 0zM287.5 210 a2.5 2.5 0 1 0 5 0 a2.5 2.5 0 1 0 -5 0z" fill="black"></path><path d="M227.5 270 a2.5 2.5 0 1 0 5 0 a2.5 2.5 0 1 0 -5 0zM87.5 90 a2.5 2.5 0 1 0 5 0 a2.5 2.5 0 1 0 -5 0z" fill="black"></path><path d="M107.5 130 a2.5 2.5 0 1 0 5 0 a2.5 2.5 0 1 0 -5 0zM207.5 290 a2.5 2.5 0 1 0 5 0 a2.5 2.5 0 1 0 -5 0z" fill="black"></path><path d="M187.5 250 a2.5 2.5 0 1 0 5 0 a2.5 2.5 0 1 0 -5 0zM87.5 110 a2.5 2.5 0 1 0 5 0 a2.5 2.5 0 1 0 -5 0z" fill="black"></path><path d="M287.5 110 a2.5 2.5 0 1 0 5 0 a2.5 2.5 0 1 0 -5 0zM267.5 190 a2.5 2.5 0 1 0 5 0 a2.5 2.5 0 1 0 -5 0z" fill="black"></path><path d="M47.5 230 a2.5 2.5 0 1 0 5 0 a2.5 2.5 0 1 0 -5 0zM47.5 110 a2.5 2.5 0 1 0 5 0 a2.5 2.5 0 1 0 -5 0z" fill="black"></path><path d="M107.5 50 a2.5 2.5 0 1 0 5 0 a2.5 2.5 0 1 0 -5 0zM247.5 190 a2.5 2.5 0 1 0 5 0 a2.5 2.5 0 1 0 -5 0z" fill="black"></path><path d="M147.5 250 a2.5 2.5 0 1 0 5 0 a2.5 2.5 0 1 0 -5 0zM87.5 170 a2.5 2.5 0 1 0 5 0 a2.5 2.5 0 1 0 -5 0z" fill="black"></path><path d="M127.5 250 a2.5 2.5 0 1 0 5 0 a2.5 2.5 0 1 0 -5 0zM187.5 290 a2.5 2.5 0 1 0 5 0 a2.5 2.5 0 1 0 -5 0z" fill="black"></path><path d="M87.5 270 a2.5 2.5 0 1 0 5 0 a2.5 2.5 0 1 0 -5 0zM27.5 290 a2.5 2.5 0 1 0 5 0 a2.5 2.5 0 1 0 -5 0z" fill="black"></path><path d="M247.5 230 a2.5 2.5 0 1 0 5 0 a2.5 2.5 0 1 0 -5 0zM287.5 230 a2.5 2.5 0 1 0 5 0 a2.5 2.5 0 1 0 -5 0z" fill="black"></path><path d="M267.5 290 a2.5 2.5 0 1 0 5 0 a2.5 2.5 0 1 0 -5 0zM247.5 250 a2.5 2.5 0 1 0 5 0 a2.5 2.5 0 1 0 -5 0z" fill="black"></path><path d="M267.5 250 a2.5 2.5 0 1 0 5 0 a2.5 2.5 0 1 0 -5 0zM287.5 290 a2.5 2.5 0 1 0 5 0 a2.5 2.5 0 1 0 -5 0z" fill="black"></path><path d="M67.5 30 a2.5 2.5 0 1 0 5 0 a2.5 2.5 0 1 0 -5 0zM27.5 30 a2.5 2.5 0 1 0 5 0 a2.5 2.5 0 1 0 -5 0z" fill="black"></path><path d="M47.5 270 a2.5 2.5 0 1 0 5 0 a2.5 2.5 0 1 0 -5 0zM27.5 230 a2.5 2.5 0 1 0 5 0 a2.5 2.5 0 1 0 -5 0z" fill="black"></path><path d="M247.5 30 a2.5 2.5 0 1 0 5 0 a2.5 2.5 0 1 0 -5 0zM287.5 50 a2.5 2.5 0 1 0 5 0 a2.5 2.5 0 1 0 -5 0z" fill="black"></path><path d="M87.5 230 a2.5 2.5 0 1 0 5 0 a2.5 2.5 0 1 0 -5 0zM107.5 270 a2.5 2.5 0 1 0 5 0 a2.5 2.5 0 1 0 -5 0z" fill="black"></path><path d="M127.5 50 a2.5 2.5 0 1 0 5 0 a2.5 2.5 0 1 0 -5 0zM167.5 70 a2.5 2.5 0 1 0 5 0 a2.5 2.5 0 1 0 -5 0z" fill="black"></path><path d="M287.5 150 a2.5 2.5 0 1 0 5 0 a2.5 2.5 0 1 0 -5 0zM287.5 190 a2.5 2.5 0 1 0 5 0 a2.5 2.5 0 1 0 -5 0z" fill="black"></path></mask></defs></svg>